<svg width="140" height="26" viewBox="0 0 140 26" fill="none" xmlns="http://www.w3.org/2000/svg">
<g clip-path="url(#clip0_59_458)">
<mask id="mask0_59_458" style="mask-type:luminance" maskUnits="userSpaceOnUse" x="0" y="0" width="139" height="26">
<path d="M138.925 0.883545H0.5V25.8323H138.925V0.883545Z" fill="white"/>
</mask>
<g mask="url(#mask0_59_458)">
<path d="M25.872 1.39289C24.7542 0.784389 23.3818 1.24738 22.8064 2.4247L14.5949 20.1044C14.403 20.4847 14.2376 20.746 13.8011 20.746C13.3646 20.746 13.1959 20.4847 13.0074 20.1044L4.79922 2.4214C4.22378 1.24408 2.85134 0.784389 1.73355 1.38959C0.615746 1.99809 0.17921 3.44329 0.754644 4.61731L8.77434 20.9808L9.68709 22.8394C10.4841 24.4698 12.0616 25.4818 13.8044 25.4818C15.544 25.4818 17.1215 24.4698 17.9218 22.8394L18.8345 20.9808L26.8542 4.61731C27.4263 3.4466 26.9865 2.0014 25.872 1.39289Z" fill="#2A3A00"/>
<path d="M134.824 1.12489C133.28 1.11827 131.927 2.08395 131.279 3.41009C129.193 7.66632 123.058 20.3291 123.031 20.3722C122.985 20.4516 122.856 20.7459 122.591 20.7459C122.343 20.7459 122.198 20.4681 122.152 20.3689C120.118 16.1656 116.106 7.86475 114 3.56884C113.189 1.91197 111.83 1.12158 110.362 1.12158H110.358C108.099 1.12158 106.271 3.02977 106.271 5.62584V23.0311C106.271 24.0894 106.876 25.0682 107.805 25.3758C109.32 25.8719 110.619 24.549 110.619 22.9848L110.302 6.01939C110.302 5.84411 110.514 5.78128 110.593 5.9334L118.97 22.8889C119.747 24.5127 121.097 25.4817 122.591 25.4817C124.083 25.4817 125.432 24.5127 126.212 22.8889L134.593 5.93671C134.675 5.77797 134.893 5.84081 134.893 6.026L134.573 23.0873C134.573 24.4366 135.581 25.5246 136.815 25.4817C138.006 25.4419 138.922 24.2977 138.922 22.9848C138.922 22.9848 138.922 9.96803 138.922 5.63246C138.925 3.00993 137.09 1.13481 134.824 1.12489Z" fill="#2A3A00"/>
<path d="M103.489 21.9465L94.2591 3.73765C93.4589 2.11717 91.8854 1.11182 90.1523 1.11182C89.0639 1.11182 88.0421 1.50536 87.2319 2.19985C86.7458 2.61324 86.3356 3.13576 86.038 3.74095L76.8542 21.8638C76.8442 21.8837 76.8377 21.9035 76.8278 21.92L76.8145 21.9465C76.3879 22.7898 76.4904 23.7819 76.9964 24.5029C77.0096 24.5227 77.0229 24.5393 77.0361 24.5592C77.0494 24.5789 77.0658 24.5988 77.0824 24.6187C77.2478 24.8336 77.4461 25.0188 77.6876 25.1643C78.4648 25.6339 79.3841 25.5645 80.0786 25.0816C80.0886 25.0751 80.0984 25.0684 80.105 25.0618C80.1547 25.0254 80.2043 24.9891 80.2505 24.9493C80.2903 24.9163 80.3266 24.8799 80.363 24.8435C80.3796 24.827 80.3961 24.8137 80.4126 24.7972C80.578 24.6286 80.7202 24.4334 80.8327 24.2085L81.1733 23.4876L83.0947 19.4595C83.1443 19.3571 83.2435 19.2909 83.3527 19.2909H91.8355C91.8355 19.2909 91.8355 19.2909 91.839 19.2909C92.9733 19.2909 93.8955 18.3186 93.8955 17.1248C93.8955 15.9276 92.9733 14.9586 91.839 14.9586H86.7491H85.5023C85.3666 14.9586 85.2807 14.8131 85.3303 14.6841L85.8032 13.682L89.2724 6.69088L89.2855 6.66112C89.2921 6.64789 89.2988 6.63467 89.3054 6.62143C89.3616 6.50569 89.5468 6.00631 89.8841 5.90379C90.0695 5.84758 90.2646 5.85419 90.3965 5.89388C90.7475 5.9997 90.9061 6.43293 91.0585 6.75041L99.4716 24.2185C99.8814 25.0254 100.668 25.4884 101.482 25.4884C101.74 25.4884 102.001 25.4388 102.256 25.3429C102.273 25.3363 102.289 25.333 102.302 25.3263C102.365 25.2999 102.424 25.2701 102.484 25.237C102.507 25.2272 102.53 25.2173 102.55 25.204C102.563 25.1974 102.573 25.1874 102.587 25.1808C102.604 25.1709 102.623 25.1643 102.64 25.1511C102.666 25.1346 102.689 25.1147 102.716 25.0981C102.739 25.0816 102.759 25.0684 102.778 25.0519C102.811 25.0254 102.845 25.0023 102.878 24.9758C102.914 24.946 102.95 24.913 102.987 24.8799C102.996 24.8699 103.006 24.8633 103.013 24.8535C103.767 24.1193 103.989 22.9321 103.489 21.9465Z" fill="#2A3A00"/>
<path d="M32.0662 15.9407H47.5996C47.894 15.9374 50.2983 15.7423 50.2983 13.0239C50.3016 6.33033 45.126 0.883545 38.7664 0.883545C32.4101 0.883545 27.2379 6.33033 27.2379 13.0272C27.2379 13.1793 27.2478 13.6027 27.2478 13.6655C27.2379 21.3115 32.1522 25.4255 38.654 25.8058C38.9649 25.8224 39.2691 25.8323 39.5668 25.8323C42.0669 25.8323 44.1768 25.184 46.4686 23.7356C46.7034 23.5901 47.6195 22.9782 48.5554 21.7711C49.2995 20.8121 49.3656 19.3735 48.5554 18.6261C47.388 17.548 46.1875 18.1301 45.1161 19.0428C43.4327 20.4748 42.1297 21.5926 38.773 21.5959C35.6081 21.5959 32.6152 19.7902 31.9042 16.1822C31.8777 16.0565 31.9504 15.9407 32.0662 15.9407ZM31.8942 11.4597C32.3275 7.95411 34.7384 4.84545 38.7598 4.84545C42.7812 4.84545 45.3277 7.89127 45.7311 11.4597C45.7443 11.5886 45.6617 11.7109 45.536 11.7109H32.0894C31.9637 11.7109 31.8777 11.5919 31.8942 11.4597Z" fill="#2A3A00"/>
<path d="M57.6201 15.9407H73.1535C73.4479 15.9374 75.8522 15.7423 75.8522 13.0239C75.8522 6.33033 70.6766 0.883545 64.3203 0.883545C57.9607 0.883545 52.7885 6.33033 52.7885 13.0272C52.7885 13.1793 52.7984 13.6027 52.7984 13.6655C52.7885 21.3115 57.7028 25.4255 64.2046 25.8058C64.5154 25.8224 64.8197 25.8323 65.1173 25.8323C67.6175 25.8323 69.7274 25.184 72.0192 23.7356C72.254 23.5901 73.1701 22.9782 74.106 21.7711C74.8501 20.8121 74.9162 19.3735 74.106 18.6261C72.9386 17.548 71.7381 18.1301 70.6666 19.0428C68.9833 20.4748 67.6803 21.5926 64.3236 21.5959C61.1587 21.5959 58.1658 19.7902 57.4548 16.1822C57.4283 16.0565 57.501 15.9407 57.6201 15.9407ZM57.4448 11.4597C57.878 7.95411 60.289 4.84545 64.3104 4.84545C68.3318 4.84545 70.8783 7.89127 71.2817 11.4597C71.2949 11.5886 71.2122 11.7109 71.0866 11.7109H57.6367C57.5143 11.7109 57.4283 11.5919 57.4448 11.4597Z" fill="#2A3A00"/>
</g>
</g>
<defs>
<clipPath id="clip0_59_458">
<rect width="139" height="24.9487" fill="white" transform="translate(0.5 0.883545)"/>
</clipPath>
</defs>
</svg>
