<svg width="131" height="25" viewBox="0 0 131 25" fill="none" xmlns="http://www.w3.org/2000/svg">
<g clip-path="url(#clip0_59_437)">
<mask id="mask0_59_437" style="mask-type:luminance" maskUnits="userSpaceOnUse" x="0" y="0" width="130" height="25">
<path d="M129.81 0.462402H0.5V24.2533H129.81V0.462402Z" fill="white"/>
</mask>
<g mask="url(#mask0_59_437)">
<path d="M128.076 19.548V19.1901H128.301C128.42 19.1901 128.593 19.2034 128.593 19.3492C128.593 19.495 128.5 19.548 128.354 19.548H128.076ZM128.076 19.7997H128.235L128.593 20.4227H128.977L128.58 19.7732C128.779 19.7865 128.937 19.6408 128.95 19.4419V19.3889C128.95 19.0443 128.712 18.9383 128.315 18.9383H127.745V20.4227H128.076V19.7997ZM129.746 19.6805C129.746 18.8058 129.07 18.3021 128.315 18.3021C127.559 18.3021 126.883 18.8058 126.883 19.6805C126.883 20.5552 127.559 21.0589 128.315 21.0589C129.07 21.0589 129.746 20.5552 129.746 19.6805ZM129.322 19.6805C129.348 20.2372 128.911 20.7142 128.354 20.7408H128.315C127.731 20.7673 127.241 20.3034 127.214 19.7203C127.188 19.1371 127.652 18.6467 128.235 18.6202C128.818 18.5937 129.308 19.0576 129.335 19.6408C129.322 19.654 129.322 19.6673 129.322 19.6805ZM77.1959 4.95595V20.595H81.6093V4.95595H77.1959ZM42.4719 4.92944V20.5817H46.9251V8.42835L50.3975 8.4416C51.5373 8.4416 52.3325 8.71992 52.8758 9.30305C53.5783 10.0452 53.8566 11.2514 53.8566 13.4382V20.5817H58.1772V11.9405C58.1772 5.76441 54.241 4.92944 50.3975 4.92944H42.4719ZM84.313 4.95595V20.595H91.4694C95.287 20.595 96.5326 19.9588 97.8709 18.5407C98.8251 17.5467 99.4351 15.3466 99.4351 12.9477C99.4351 10.7477 98.9185 8.78619 98.0034 7.56688C96.3865 5.38006 94.0278 4.95595 90.5025 4.95595H84.313ZM88.6868 8.34883H90.5815C93.3387 8.34883 95.1145 9.5814 95.1145 12.7888C95.1145 15.996 93.3387 17.2419 90.5815 17.2419H88.6868V8.34883ZM70.8343 4.95595L67.1498 17.3479L63.6244 4.95595H58.8531L63.8895 20.595H70.2511L75.3404 4.95595H70.8343ZM101.502 20.595H105.916V4.95595H101.502V20.595ZM113.881 4.95595L107.719 20.5817H112.066L113.046 17.8118H120.335L121.263 20.5684H125.995L119.779 4.95595H113.881ZM116.744 7.80543L119.421 15.1214H113.987L116.744 7.80543Z" fill="#2A3A00"/>
<path d="M13.9904 7.55354V5.40648C14.2024 5.39323 14.4144 5.37998 14.6265 5.37998C20.511 5.19443 24.3678 10.4428 24.3678 10.4428C24.3678 10.4428 20.2061 16.2213 15.7398 16.2213C15.1434 16.2213 14.5602 16.1285 14.0036 15.9429V9.42227C16.2964 9.70062 16.7603 10.7078 18.1254 13.0007L21.1869 10.4296C21.1869 10.4296 18.9471 7.50053 15.1831 7.50053C14.7855 7.48727 14.3879 7.51378 13.9904 7.55354ZM13.9904 0.449707V3.65703L14.6265 3.61728C22.8039 3.33895 28.145 10.3235 28.145 10.3235C28.145 10.3235 22.0219 17.7719 15.647 17.7719C15.0903 17.7719 14.547 17.7189 14.0036 17.6261V19.6142C14.4542 19.6672 14.918 19.707 15.3687 19.707C21.3062 19.707 25.6003 16.6719 29.7619 13.0935C30.4511 13.6501 33.274 14.9887 33.8572 15.5719C29.9077 18.8852 20.6966 21.5491 15.4747 21.5491C14.9711 21.5491 14.494 21.5226 14.0168 21.4696V24.2661H36.5742V0.449707H13.9904ZM13.9904 15.9429V17.6394C8.5034 16.6587 6.97927 10.9464 6.97927 10.9464C6.97927 10.9464 9.61667 8.03066 13.9904 7.55354V9.40901H13.9771C11.6843 9.13066 9.88177 11.2778 9.88177 11.2778C9.88177 11.2778 10.9023 14.8959 13.9904 15.9429ZM4.24905 10.7078C4.24905 10.7078 7.49615 5.91012 14.0036 5.40648V3.65703C6.79371 4.24019 0.564606 10.3368 0.564606 10.3368C0.564606 10.3368 4.09002 20.5419 13.9904 21.4696V19.6142C6.72745 18.7129 4.24905 10.7078 4.24905 10.7078Z" fill="#2A3A00"/>
</g>
</g>
<defs>
<clipPath id="clip0_59_437">
<rect width="130" height="23.7908" fill="white" transform="translate(0.5 0.462402)"/>
</clipPath>
</defs>
</svg>
