<svg width="162" height="29" viewBox="0 0 162 29" fill="none" xmlns="http://www.w3.org/2000/svg">
<g clip-path="url(#clip0_59_455)">
<path d="M17.3 28.3579H10.6333C9.03333 28.3579 7.7 27.5579 7.16666 26.4912L1.3 16.3579C0.499997 15.0246 0.499997 13.6912 1.3 12.3579L7.16666 2.22458C7.7 1.15791 9.03333 0.35791 10.6333 0.35791H22.1C23.4333 0.35791 24.7667 1.15791 25.5667 2.22458L31.4333 12.3579C31.9667 13.6912 31.9667 15.0246 31.4333 16.3579L29.8333 18.7579C29.0333 20.0912 27.7 20.6246 26.3667 20.6246H19.4333L23.1667 14.2246L19.7 8.35791H12.7667L9.3 14.2246L17.3 28.3579Z" fill="#2A3A00"/>
<path d="M43.1667 14.4913C44.2333 14.4913 45.0333 13.9579 45.0333 12.6246C45.0333 11.5579 44.5 11.0246 43.1667 11.0246H42.3667V14.4913H43.1667ZM42.3667 21.1579H39.1667V8.62464H43.7C46.6333 8.62464 48.5 9.95797 48.5 12.6246C48.5 15.5579 46.3667 16.8913 43.1667 16.8913H42.3667V21.1579ZM53.3 8.62464V16.6246C53.3 17.9579 54.1 18.4913 55.1667 18.4913C56.2333 18.4913 56.7667 17.9579 56.7667 16.6246V8.62464H59.9667V17.1579C59.9667 19.5579 58.1 21.1579 55.1667 21.1579C51.9667 21.1579 50.3667 19.8246 50.3667 16.8913V8.62464H53.3ZM73.8333 8.62464H82.1V11.2913H77.0333V13.4246H81.3V16.0913H77.0333V18.2246H82.1V21.1579H73.8333V8.62464ZM85.0333 18.7579C85.5667 19.0246 86.9 19.8246 88.5 19.8246C89.8333 19.8246 91.1667 19.2913 91.1667 17.4246C91.1667 15.8246 89.8333 15.5579 88.2333 15.0246C86.3667 14.4913 84.7667 13.9579 84.7667 11.5579C84.7667 9.42464 86.3667 8.09131 88.7667 8.09131C90.3667 8.09131 91.9667 8.89131 92.7667 9.69131L91.9667 10.7579C90.9 9.95797 89.8333 9.42464 88.7667 9.42464C87.7 9.42464 86.3667 9.95797 86.3667 11.2913C86.3667 12.8913 87.4333 13.4246 89.0333 13.6913C90.9 14.2246 92.7667 15.0246 92.7667 17.4246C92.7667 19.8246 91.1667 21.1579 88.5 21.1579C86.6333 21.1579 85.0333 20.3579 84.5 19.8246L85.0333 18.7579ZM102.9 8.62464V9.95797H99.1667V21.1579H97.8333V9.95797H94.1V8.62464H102.9ZM109.033 19.8246C111.7 19.8246 112.5 17.1579 112.5 14.7579C112.5 12.3579 111.967 9.42464 109.033 9.42464C106.367 9.42464 105.3 12.0913 105.3 14.4913C105.3 16.8913 106.1 19.8246 109.033 19.8246ZM109.033 21.1579C105.833 21.1579 103.967 18.7579 103.967 14.4913C103.967 9.69131 106.633 8.09131 109.033 8.09131C111.7 8.09131 114.1 9.69131 114.1 14.4913C114.1 19.0246 111.967 21.1579 109.033 21.1579ZM129.833 16.0913H133.833L131.7 9.95797L129.833 16.0913ZM126.633 21.1579L130.9 8.62464H132.767L137.3 21.1579H135.7L134.367 17.1579H129.3L127.967 21.1579H126.633ZM146.9 19.8246C145.833 20.6246 144.5 21.1579 142.9 21.1579C139.7 21.1579 137.567 19.0246 137.567 14.4913C137.567 9.69131 140.5 8.09131 142.9 8.09131C143.967 8.09131 145.567 8.62464 146.9 10.2246L145.833 11.0246C145.033 9.95797 143.967 9.42464 142.9 9.42464C140.5 9.42464 139.167 11.2913 139.167 14.4913C139.167 17.9579 140.233 19.8246 142.9 19.8246L145.3 19.2913V15.5579H142.633V14.2246H146.9V19.8246ZM149.567 8.62464H156.5V9.95797H151.167V13.9579H155.7V15.2913H151.167V19.8246H156.5V21.1579H149.567V8.62464ZM119.7 15.2913H117.833V9.69131H119.433C121.567 9.69131 123.167 9.95797 123.167 12.6246C123.167 14.4913 121.833 15.2913 119.7 15.2913ZM123.433 17.1579C123.167 16.3579 122.9 16.0913 122.367 16.0913C123.967 15.2913 124.767 14.2246 124.767 12.3579C124.767 9.69131 123.167 8.62464 120.5 8.62464H116.233V21.1579H117.833V16.3579H120.5C121.3 16.3579 121.567 16.8913 121.833 17.6913L123.433 20.8913H125.033L123.433 17.1579ZM65.5667 14.4913V11.0246H66.3667C67.4333 11.0246 68.2333 11.5579 68.2333 12.6246C68.2333 13.9579 67.4333 14.4913 66.1 14.4913H65.5667ZM70.3667 17.1579L69.5667 16.0913C70.6333 15.2913 71.4333 14.2246 71.4333 12.6246C71.4333 9.95797 69.5667 8.62464 66.9 8.62464H62.3667V21.1579H65.3V16.8913H66.3667L67.1667 17.6913L68.5 21.1579H71.9667L70.3667 17.1579ZM159.167 9.69131L159.7 9.42464L159.167 9.15797H158.9V9.69131H159.167ZM158.9 10.7579H158.633V8.89131H159.167C159.7 8.89131 159.967 9.15797 159.967 9.42464L159.433 9.95797L159.967 10.7579H159.7L159.167 9.95797H158.9V10.7579ZM159.167 8.35797C158.367 8.35797 157.833 8.89131 157.833 9.69131C157.833 10.4913 158.367 11.0246 159.167 11.0246C159.967 11.0246 160.5 10.4913 160.5 9.69131C160.5 8.89131 159.967 8.35797 159.167 8.35797ZM159.167 11.2913C158.1 11.2913 157.567 10.7579 157.567 9.69131C157.567 8.62464 158.367 8.09131 159.167 8.09131C159.967 8.09131 160.767 8.62464 160.767 9.69131C160.767 10.7579 159.967 11.2913 159.167 11.2913Z" fill="#2A3A00"/>
</g>
<defs>
<clipPath id="clip0_59_455">
<rect width="161" height="28" fill="white" transform="translate(0.5 0.35791)"/>
</clipPath>
</defs>
</svg>
