<svg width="182" height="29" viewBox="0 0 182 29" fill="none" xmlns="http://www.w3.org/2000/svg">
<g clip-path="url(#clip0_59_444)">
<path d="M22.3347 7.76788H23.334L26.182 4.91788L26.3219 3.70788C24.6904 2.26683 22.7187 1.26579 20.5931 0.799309C18.4675 0.332829 16.2581 0.416313 14.1737 1.04188C12.0893 1.66744 10.1986 2.81442 8.68037 4.37449C7.16209 5.93455 6.0663 7.85619 5.49652 9.95788C5.8138 9.82774 6.16526 9.80664 6.49582 9.89788L12.1918 8.95788C12.1918 8.95788 12.4816 8.47788 12.6315 8.50788C13.852 7.16654 15.5387 6.34277 17.3462 6.20521C19.1538 6.06764 20.9456 6.62668 22.3547 7.76788H22.3347Z" fill="#2A3A00"/>
<path d="M30.2392 9.95802C29.5846 7.54565 28.2405 5.37696 26.3719 3.71802L22.3747 7.71802C23.2078 8.39918 23.8754 9.26075 24.3272 10.2377C24.779 11.2147 25.0032 12.2816 24.9829 13.358V14.068C25.4501 14.068 25.9127 14.1601 26.3443 14.339C26.7759 14.5179 27.1681 14.7801 27.4984 15.1107C27.8288 15.4413 28.0908 15.8337 28.2696 16.2656C28.4484 16.6976 28.5404 17.1605 28.5404 17.628C28.5404 18.0955 28.4484 18.5584 28.2696 18.9903C28.0908 19.4223 27.8288 19.8147 27.4984 20.1453C27.1681 20.4759 26.7759 20.7381 26.3443 20.917C25.9127 21.0959 25.4501 21.188 24.9829 21.188H17.8679L17.1584 21.908V26.178L17.8679 26.888H24.9829C26.9697 26.9035 28.9088 26.2786 30.5132 25.1058C32.1177 23.9329 33.3023 22.2745 33.8918 20.3757C34.4813 18.477 34.4444 16.4387 33.7866 14.5626C33.1288 12.6864 31.885 11.0719 30.2392 9.95802Z" fill="#2A3A00"/>
<path d="M10.7428 26.8479H17.8579V21.1479H10.7428C10.2359 21.1478 9.73495 21.0386 9.27386 20.8279L8.27456 21.1379L5.40656 23.9879L5.15674 24.9879C6.76505 26.2032 8.72752 26.8566 10.7428 26.8479Z" fill="#2A3A00"/>
<path d="M10.7428 8.35797C8.81501 8.36949 6.93891 8.98327 5.37659 10.1136C3.81426 11.2439 2.64372 12.8342 2.02847 14.6626C1.41321 16.4909 1.38397 18.4659 1.94481 20.3117C2.50565 22.1574 3.62858 23.7818 5.15675 24.958L9.28386 20.828C8.75939 20.5908 8.30024 20.2299 7.9458 19.7762C7.59136 19.3225 7.35221 18.7894 7.24888 18.2229C7.14555 17.6563 7.18112 17.0731 7.35253 16.5234C7.52395 15.9736 7.82609 15.4736 8.23304 15.0664C8.63999 14.6592 9.1396 14.3568 9.68899 14.1853C10.2384 14.0137 10.8212 13.9782 11.3873 14.0816C11.9535 14.185 12.4861 14.4243 12.9395 14.779C13.393 15.1336 13.7536 15.5931 13.9906 16.118L18.1177 11.988C17.2514 10.8547 16.135 9.93737 14.8556 9.30764C13.5762 8.67791 12.1686 8.35288 10.7428 8.35797Z" fill="#2A3A00"/>
<path d="M53.2531 22.868C52.0281 22.8836 50.8126 22.6516 49.6793 22.1859C48.546 21.7203 47.5183 21.0305 46.6577 20.158C45.7701 19.3224 45.0656 18.3114 44.5891 17.189C44.1126 16.0666 43.8744 14.8573 43.8897 13.638C43.875 12.4186 44.1135 11.2096 44.59 10.0873C45.0665 8.96498 45.7706 7.95387 46.6577 7.11796C47.5141 6.23636 48.5399 5.53734 49.6734 5.06301C50.8069 4.58868 52.0246 4.34885 53.2531 4.35796C54.4237 4.34235 55.5858 4.55974 56.6717 4.99751C57.7576 5.43527 58.7458 6.08467 59.5787 6.90796L57.7999 8.71796C56.5818 7.53992 54.947 6.89271 53.2531 6.91796C52.3745 6.90716 51.5032 7.07939 50.6946 7.4237C49.886 7.76802 49.1579 8.27688 48.5564 8.91796C47.9313 9.53854 47.4382 10.2793 47.1067 11.0956C46.7753 11.9119 46.6123 12.7869 46.6278 13.668C46.6204 14.5389 46.7873 15.4025 47.1185 16.208C47.4497 17.0134 47.9386 17.7444 48.5564 18.358C49.7939 19.592 51.4639 20.2941 53.2108 20.3146C54.9578 20.3352 56.6437 19.6726 57.9099 18.468C58.6937 17.6089 59.1746 16.5165 59.2789 15.358H53.2831V12.798H61.7672C61.8505 13.3135 61.884 13.8359 61.8671 14.358C61.9199 15.4384 61.7531 16.5183 61.377 17.5323C61.0008 18.5464 60.4231 19.4737 59.6786 20.258C58.8509 21.1203 57.8509 21.7984 56.7438 22.2481C55.6367 22.6979 54.4473 22.909 53.2531 22.868ZM72.9793 21.168C71.8407 22.2601 70.3245 22.8699 68.7473 22.8699C67.1701 22.8699 65.6538 22.2601 64.5152 21.168C63.9485 20.6181 63.5022 19.9563 63.2046 19.2247C62.907 18.4931 62.7646 17.7076 62.7865 16.918C62.7652 16.1284 62.9079 15.3431 63.2055 14.6115C63.503 13.88 63.949 13.2182 64.5152 12.668C65.655 11.5781 67.1708 10.9698 68.7473 10.9698C70.3238 10.9698 71.8396 11.5781 72.9793 12.668C73.5456 13.2182 73.9915 13.88 74.2891 14.6115C74.5867 15.3431 74.7294 16.1284 74.7081 16.918C74.7287 17.7083 74.5847 18.4943 74.2854 19.2259C73.986 19.9576 73.5379 20.619 72.9693 21.168H72.9793ZM66.3839 19.498C66.6868 19.8216 67.0528 20.0796 67.4593 20.256C67.8658 20.4324 68.3042 20.5234 68.7473 20.5234C69.1904 20.5234 69.6287 20.4324 70.0353 20.256C70.4418 20.0796 70.8078 19.8216 71.1106 19.498C71.4409 19.1564 71.6994 18.7522 71.871 18.3091C72.0427 17.866 72.1239 17.393 72.1099 16.918C72.1247 16.4413 72.0438 15.9666 71.8722 15.5218C71.7006 15.0769 71.4416 14.671 71.1106 14.328C70.8038 14.0076 70.4353 13.7527 70.0275 13.5786C69.6196 13.4044 69.1807 13.3147 68.7373 13.3147C68.2939 13.3147 67.855 13.4044 67.4471 13.5786C67.0393 13.7527 66.6708 14.0076 66.364 14.328C66.033 14.671 65.774 15.0769 65.6024 15.5218C65.4308 15.9666 65.3499 16.4413 65.3647 16.918C65.352 17.3937 65.4348 17.8671 65.6082 18.3102C65.7816 18.7534 66.0419 19.1572 66.3739 19.498H66.3839ZM85.9902 21.168C84.8516 22.2601 83.3354 22.8699 81.7582 22.8699C80.181 22.8699 78.6648 22.2601 77.5262 21.168C76.9594 20.6181 76.5131 19.9563 76.2155 19.2247C75.9179 18.4931 75.7755 17.7076 75.7974 16.918C75.7761 16.1284 75.9188 15.3431 76.2164 14.6115C76.5139 13.88 76.9599 13.2182 77.5262 12.668C78.6648 11.5758 80.181 10.966 81.7582 10.966C83.3354 10.966 84.8516 11.5758 85.9902 12.668C86.5565 13.2182 87.0025 13.88 87.3 14.6115C87.5976 15.3431 87.7403 16.1284 87.719 16.918C87.7409 17.7076 87.5985 18.4931 87.3009 19.2247C87.0033 19.9563 86.557 20.6181 85.9902 21.168ZM79.3948 19.498C79.6977 19.8216 80.0637 20.0796 80.4702 20.256C80.8767 20.4324 81.3151 20.5234 81.7582 20.5234C82.2013 20.5234 82.6396 20.4324 83.0462 20.256C83.4527 20.0796 83.8187 19.8216 84.1215 19.498C84.4518 19.1564 84.7103 18.7522 84.8819 18.3091C85.0536 17.866 85.1348 17.393 85.1208 16.918C85.1356 16.4413 85.0547 15.9666 84.8831 15.5218C84.7115 15.0769 84.4525 14.671 84.1215 14.328C83.8147 14.0076 83.4462 13.7527 83.0384 13.5786C82.6305 13.4044 82.1916 13.3147 81.7482 13.3147C81.3048 13.3147 80.8659 13.4044 80.458 13.5786C80.0502 13.7527 79.6817 14.0076 79.3749 14.328C79.0439 14.671 78.7849 15.0769 78.6133 15.5218C78.4417 15.9666 78.3608 16.4413 78.3756 16.918C78.3629 17.3937 78.4457 17.8671 78.6191 18.3102C78.7925 18.7534 79.0528 19.1572 79.3849 19.498H79.3948ZM94.5443 28.208C93.3465 28.2461 92.1719 27.8719 91.2166 27.148C90.3683 26.5098 89.7003 25.6621 89.2779 24.688L91.5563 23.738C91.8043 24.3201 92.1922 24.832 92.6856 25.228C93.2136 25.6539 93.8763 25.8773 94.5543 25.858C94.9842 25.8841 95.4147 25.8173 95.8165 25.662C96.2183 25.5067 96.5819 25.2665 96.8826 24.958C97.4847 24.2312 97.7819 23.2993 97.712 22.358V21.498H97.6221C97.2413 21.9506 96.7604 22.3082 96.2175 22.5425C95.6746 22.7768 95.0846 22.8814 94.4943 22.848C93.744 22.8502 93.0014 22.6968 92.3134 22.3973C91.6254 22.0978 91.0069 21.6588 90.4971 21.108C89.9438 20.5615 89.5072 19.9085 89.2134 19.1883C88.9197 18.4681 88.7751 17.6957 88.7883 16.918C88.7745 16.1356 88.9187 15.3586 89.2124 14.6335C89.506 13.9083 89.943 13.25 90.4971 12.698C91.0057 12.1448 91.6237 11.7036 92.3118 11.4024C92.9999 11.1011 93.7432 10.9463 94.4943 10.948C95.13 10.9468 95.758 11.0869 96.333 11.358C96.8305 11.5753 97.274 11.8997 97.6321 12.308H97.722V11.358H100.2V22.008C100.266 22.8504 100.158 23.6974 99.8851 24.4969C99.6119 25.2965 99.1785 26.0318 98.6114 26.658C98.0713 27.175 97.4331 27.5786 96.7346 27.8448C96.036 28.111 95.2913 28.2345 94.5443 28.208ZM94.7241 20.528C95.1508 20.5373 95.5744 20.4526 95.9647 20.2798C96.355 20.107 96.7025 19.8503 96.9826 19.528C97.5991 18.8209 97.9242 17.9058 97.8919 16.968C97.9289 16.0143 97.6041 15.0819 96.9826 14.358C96.703 14.0351 96.3555 13.778 95.9651 13.6052C95.5747 13.4323 95.1509 13.3479 94.7241 13.358C94.2858 13.3489 93.8505 13.4335 93.4473 13.6059C93.0441 13.7783 92.6822 14.0347 92.3858 14.358C91.7247 15.0559 91.3656 15.9866 91.3865 16.948C91.3763 17.4195 91.4594 17.8884 91.6308 18.3277C91.8023 18.7671 92.0589 19.1682 92.3858 19.508C92.6808 19.8343 93.042 20.0941 93.4452 20.27C93.8484 20.4459 94.2843 20.5338 94.7241 20.528ZM104.607 5.02796V22.508H101.999V5.02796H104.607ZM111.762 22.868C110.981 22.888 110.204 22.7465 109.48 22.4523C108.756 22.158 108.101 21.7174 107.555 21.158C107.001 20.6026 106.566 19.9404 106.276 19.2115C105.985 18.4826 105.846 17.7023 105.866 16.918C105.837 16.1317 105.966 15.3475 106.246 14.6121C106.525 13.8768 106.95 13.2054 107.495 12.638C108.009 12.0964 108.629 11.6681 109.318 11.3806C110.006 11.093 110.747 10.9525 111.492 10.968C112.178 10.9607 112.858 11.0934 113.491 11.358C114.061 11.5882 114.58 11.9279 115.02 12.358C115.397 12.7225 115.733 13.1284 116.019 13.568C116.251 13.9391 116.449 14.3307 116.609 14.738L116.879 15.418L108.884 18.708C109.126 19.2639 109.53 19.7334 110.044 20.0547C110.558 20.3761 111.157 20.5341 111.762 20.508C112.351 20.5096 112.93 20.3584 113.444 20.0692C113.957 19.78 114.386 19.3627 114.69 18.858L116.689 20.208C116.179 20.9382 115.526 21.5573 114.77 22.028C113.871 22.5963 112.825 22.8884 111.762 22.868ZM108.425 16.738L113.741 14.528C113.577 14.1383 113.284 13.8169 112.911 13.618C112.494 13.3821 112.022 13.2613 111.542 13.268C110.729 13.289 109.957 13.6304 109.394 14.218C109.057 14.5407 108.795 14.9339 108.628 15.3695C108.46 15.8051 108.391 16.2724 108.425 16.738Z" fill="#2A3A00"/>
<path d="M130.539 22.868C129.43 22.8872 128.328 22.6818 127.3 22.2643C126.272 21.8468 125.339 21.2258 124.557 20.4384C123.775 19.6511 123.16 18.7137 122.749 17.6826C122.338 16.6515 122.139 15.5479 122.165 14.438C122.139 13.3281 122.338 12.2245 122.749 11.1934C123.16 10.1623 123.775 9.22494 124.557 8.43761C125.339 7.65027 126.272 7.02921 127.3 6.61171C128.328 6.19421 129.43 5.98888 130.539 6.00804C131.662 5.97291 132.778 6.19211 133.804 6.64926C134.83 7.1064 135.74 7.78968 136.465 8.64804L135.026 10.048C134.494 9.37793 133.811 8.84302 133.033 8.48681C132.255 8.13059 131.404 7.96313 130.549 7.99804C129.726 7.97948 128.908 8.1276 128.144 8.43349C127.38 8.73938 126.685 9.19673 126.102 9.77804C125.496 10.388 125.022 11.1169 124.711 11.9188C124.4 12.7208 124.258 13.5784 124.293 14.438C124.258 15.2976 124.4 16.1552 124.711 16.9572C125.022 17.7591 125.496 18.488 126.102 19.098C126.685 19.6793 127.38 20.1367 128.144 20.4425C128.908 20.7484 129.726 20.8966 130.549 20.878C131.504 20.8887 132.449 20.6839 133.314 20.2788C134.179 19.8737 134.942 19.2787 135.546 18.538L136.985 19.978C136.231 20.8796 135.285 21.6006 134.217 22.088C133.065 22.6202 131.808 22.8868 130.539 22.868Z" fill="#2A3A00"/>
<path d="M140.852 22.5079H138.783V6.35791H140.852V22.5079Z" fill="#2A3A00"/>
<path d="M144.23 12.7879C145.313 11.7107 146.779 11.1062 148.307 11.1062C149.834 11.1062 151.3 11.7107 152.384 12.7879C152.914 13.348 153.328 14.0074 153.602 14.7282C153.877 15.449 154.006 16.217 153.983 16.9879C154.006 17.7589 153.877 18.5269 153.602 19.2477C153.328 19.9685 152.914 20.6279 152.384 21.1879C151.3 22.2652 149.834 22.8697 148.307 22.8697C146.779 22.8697 145.313 22.2652 144.23 21.1879C143.699 20.6279 143.285 19.9685 143.011 19.2477C142.737 18.5269 142.607 17.7589 142.631 16.9879C142.607 16.217 142.737 15.449 143.011 14.7282C143.285 14.0074 143.699 13.348 144.23 12.7879ZM145.768 19.8879C146.094 20.2326 146.487 20.5072 146.923 20.6948C147.358 20.8824 147.827 20.9792 148.302 20.9792C148.776 20.9792 149.245 20.8824 149.681 20.6948C150.116 20.5072 150.509 20.2326 150.835 19.8879C151.196 19.4997 151.477 19.0434 151.661 18.5455C151.844 18.0476 151.927 17.5181 151.904 16.9879C151.927 16.4577 151.844 15.9283 151.661 15.4304C151.477 14.9325 151.196 14.4762 150.835 14.0879C150.509 13.7433 150.116 13.4687 149.681 13.2811C149.245 13.0934 148.776 12.9967 148.302 12.9967C147.827 12.9967 147.358 13.0934 146.923 13.2811C146.487 13.4687 146.094 13.7433 145.768 14.0879C145.407 14.4762 145.126 14.9325 144.943 15.4304C144.759 15.9283 144.676 16.4577 144.699 16.9879C144.679 17.5172 144.764 18.0452 144.949 18.5413C145.134 19.0374 145.416 19.4917 145.778 19.8779L145.768 19.8879Z" fill="#2A3A00"/>
<path d="M165.445 22.508H163.446V20.978H163.386C163.03 21.5591 162.527 22.0353 161.927 22.358C161.305 22.719 160.598 22.9087 159.879 22.908C159.295 22.948 158.709 22.8554 158.166 22.6372C157.622 22.4191 157.135 22.0809 156.741 21.648C155.984 20.6898 155.603 19.4875 155.672 18.268V11.468H157.74V17.888C157.74 19.948 158.649 20.978 160.468 20.978C160.872 20.9906 161.274 20.9064 161.639 20.7325C162.004 20.5585 162.322 20.2999 162.567 19.978C163.103 19.298 163.389 18.454 163.376 17.588V11.468H165.445V22.508Z" fill="#2A3A00"/>
<path d="M172.47 22.8679C171.768 22.8702 171.074 22.7204 170.436 22.4286C169.798 22.1369 169.23 21.7102 168.772 21.1779C167.736 20.0328 167.182 18.532 167.223 16.9879C167.182 15.4438 167.736 13.943 168.772 12.7979C169.23 12.2656 169.798 11.8389 170.436 11.5472C171.074 11.2554 171.768 11.1056 172.47 11.1079C173.256 11.0955 174.033 11.2812 174.728 11.6479C175.339 11.9557 175.857 12.4219 176.227 12.9979H176.317L176.227 11.4679V6.35791H178.296V22.5079H176.297V20.9779H176.207C175.837 21.5539 175.32 22.0201 174.708 22.3279C174.019 22.6914 173.249 22.877 172.47 22.8679ZM172.81 20.9779C173.277 20.9847 173.741 20.8919 174.17 20.7057C174.599 20.5195 174.983 20.2442 175.298 19.8979C176.001 19.0972 176.36 18.0517 176.297 16.9879C176.36 15.9241 176.001 14.8786 175.298 14.0779C174.981 13.7297 174.596 13.4516 174.165 13.2613C173.735 13.0709 173.27 12.9726 172.8 12.9726C172.329 12.9726 171.864 13.0709 171.434 13.2613C171.004 13.4516 170.618 13.7297 170.301 14.0779C169.952 14.4717 169.684 14.9306 169.513 15.4282C169.341 15.9259 169.27 16.4525 169.302 16.9779C169.27 17.5033 169.341 18.0299 169.513 18.5276C169.684 19.0252 169.952 19.4841 170.301 19.8779C170.616 20.2304 171.003 20.511 171.436 20.7008C171.869 20.8906 172.337 20.9851 172.81 20.9779Z" fill="#2A3A00"/>
</g>
<defs>
<clipPath id="clip0_59_444">
<rect width="181" height="28" fill="white" transform="translate(0.5 0.35791)"/>
</clipPath>
</defs>
</svg>
