<svg width="151" height="25" viewBox="0 0 151 25" fill="none" xmlns="http://www.w3.org/2000/svg">
<g clip-path="url(#clip0_59_468)">
<mask id="mask0_59_468" style="mask-type:luminance" maskUnits="userSpaceOnUse" x="0" y="0" width="151" height="25">
<path d="M150.409 0.148682H0.5V24.5673H150.409V0.148682Z" fill="white"/>
</mask>
<g mask="url(#mask0_59_468)">
<path d="M65.3856 21.7117L58.9119 3.69313C58.8292 3.44403 58.706 3.11516 58.706 2.82666C58.706 2.04586 59.3661 1.30444 60.3119 1.30444C61.1375 1.30444 61.6754 1.84007 61.9217 2.62088L67.2861 18.1484L72.689 2.58149C72.9354 1.84303 73.4309 1.30739 74.2515 1.30739H74.419C75.287 1.30739 75.8229 1.84303 76.0692 2.58149L81.4278 18.1484L86.877 2.54211C87.0829 1.87946 87.5331 1.30641 88.4018 1.30641C89.3087 1.30641 89.9698 2.00352 89.9698 2.78827C89.9698 3.07578 89.8442 3.40365 89.764 3.65473L83.2485 21.7127C82.9154 22.656 82.2583 23.1512 81.5145 23.1512H81.3913C80.5657 23.1512 79.946 22.656 79.6554 21.7127L74.3383 6.40183L68.9747 21.7127C68.6861 22.656 68.0654 23.1512 67.2428 23.1512H67.1561C66.3749 23.1512 65.7177 22.656 65.3856 21.7127" fill="#2A3A00"/>
<path d="M112.577 2.90552C112.577 2.03611 113.278 1.2937 114.144 1.2937C115.058 1.2937 115.758 1.99574 115.758 2.90552V6.56142C117.326 3.01088 120.804 1.33506 123.11 1.33506C124.064 1.33506 124.684 2.03611 124.684 2.94393C124.684 3.81236 124.109 4.42874 123.276 4.5528C119.142 5.04806 115.758 8.14666 115.758 14.3006V21.5405C115.758 22.4079 115.098 23.1493 114.19 23.1493C113.281 23.1493 112.578 22.4443 112.578 21.5405L112.577 2.90159V2.90552Z" fill="#2A3A00"/>
<path d="M134.941 23.3857C129.19 23.3857 124.498 18.9284 124.498 12.3875V12.3028C124.498 6.21491 128.75 1.31445 134.537 1.31445C140.727 1.31445 144.252 6.41873 144.252 12.0173C144.252 12.8779 143.558 13.4932 142.793 13.4932H127.661C128.102 18.0668 131.298 20.6406 135.027 20.6406C137.619 20.6406 139.515 19.6185 141.056 18.1879C141.299 17.9861 141.583 17.8226 141.949 17.8226C142.716 17.8226 143.325 18.4361 143.325 19.1745C143.325 19.5407 143.164 19.91 142.836 20.1926C140.855 22.1116 138.503 23.3827 134.944 23.3827M141.137 11.1636C140.812 7.31867 138.625 3.97096 134.454 3.97096C130.812 3.97096 128.058 7.03412 127.659 11.1636H141.137Z" fill="#2A3A00"/>
<path d="M90.1146 16.7886V16.7059C90.1146 12.22 93.8227 9.8293 99.2166 9.8293C101.937 9.8293 103.872 10.1995 105.77 10.7381V9.99369C105.77 6.16847 103.416 4.18939 99.4242 4.18939C97.2814 4.18939 96.0343 4.46213 94.4663 5.16022C94.2631 5.24293 94.0556 5.28527 93.8942 5.28527C93.1529 5.28527 92.491 4.66594 92.491 3.92649C92.491 3.26975 92.7771 2.8631 93.3579 2.60611C95.4553 1.69632 97.0364 1.39404 99.7538 1.39404C102.758 1.39404 105.066 2.17387 106.629 3.73942C108.073 5.17991 108.815 7.23777 108.815 9.95628V21.7028C108.815 22.6057 108.156 23.2664 107.285 23.2664C106.383 23.2664 105.771 22.6067 105.771 21.7846V19.7542C104.285 21.693 101.812 23.419 98.0707 23.419C94.114 23.4161 90.1146 21.1544 90.1146 16.7905M105.809 15.1433V13.0845C104.24 12.6325 102.137 12.1786 99.5436 12.1786C95.5538 12.1786 93.3265 13.9096 93.3265 16.5828V16.6645C93.3265 19.3397 95.7954 20.9043 98.682 20.9043C102.593 20.9043 105.809 18.5156 105.809 15.1433Z" fill="#2A3A00"/>
<path d="M7.75113 2.7086C7.05361 1.18046 5.32949 0.488275 3.71967 1.20311C2.10786 1.91893 1.51477 3.70503 2.24284 5.23414L9.00234 19.9148C10.0654 22.2159 11.1856 23.4221 13.2879 23.4221C15.5343 23.4221 16.5136 22.1086 17.5756 19.9148C17.5756 19.9148 23.4711 7.08524 23.5302 6.94739C23.5903 6.81151 23.7795 6.39699 24.3794 6.40093C24.8868 6.40387 25.3134 6.80856 25.3134 7.35207V19.8962C25.3134 21.8299 26.3863 23.4162 28.4513 23.4162C30.5143 23.4162 31.6295 21.8299 31.6295 19.8962V9.62656C31.6295 7.64647 33.0492 6.36154 34.9842 6.36154C36.9191 6.36154 38.2068 7.69275 38.2068 9.62656V19.8962C38.2068 21.8299 39.2836 23.4162 41.3447 23.4162C43.4077 23.4162 44.5288 21.8299 44.5288 19.8962V9.62656C44.5288 7.64647 45.9427 6.36154 47.8786 6.36154C49.8106 6.36154 51.1031 7.69275 51.1031 9.62656V19.8962C51.1031 21.8299 52.179 23.4162 54.242 23.4162C56.3041 23.4162 57.4233 21.8299 57.4233 19.8962V8.20869C57.4233 3.91476 53.9681 0.906738 49.8106 0.906738C45.6579 0.906738 43.057 3.7779 43.057 3.7779C41.6747 1.98687 39.7693 0.910678 36.5447 0.910678C33.1418 0.910678 30.1636 3.7779 30.1636 3.7779C28.7803 1.98687 26.4257 0.910678 24.476 0.910678C21.4602 0.910678 19.0652 2.23598 17.6042 5.57483L13.2879 15.746L7.75113 2.7086Z" fill="#2A3A00"/>
<path d="M144.497 3.9886V3.97088C144.497 2.53432 145.664 1.32422 147.13 1.32422C148.617 1.32422 149.767 2.52152 149.767 3.96005V3.97088C149.767 5.41236 148.604 6.62246 147.13 6.62246C145.643 6.62246 144.497 5.4291 144.497 3.9886ZM149.262 3.97088V3.96398C149.262 2.78244 148.348 1.81358 147.13 1.81358C145.923 1.81358 144.996 2.79918 144.996 3.97088V3.98466C144.996 5.16325 145.913 6.13212 147.13 6.13212C148.333 6.13212 149.262 5.14849 149.262 3.97088Z" fill="#2A3A00"/>
<path d="M146.173 2.90563C146.173 2.74907 146.297 2.62402 146.456 2.62402H147.335C147.667 2.62402 147.921 2.71756 148.08 2.88495C148.225 3.02575 148.303 3.22957 148.303 3.46588V3.47376C148.303 3.87548 148.101 4.12065 147.794 4.24964L148.182 4.72225C148.237 4.79315 148.273 4.85124 148.273 4.93789C148.273 5.09346 148.141 5.19586 148.007 5.19586C147.882 5.19586 147.797 5.13186 147.731 5.05112L147.184 4.35992H146.736V4.91524C146.736 5.0718 146.615 5.19488 146.457 5.19488C146.299 5.19488 146.174 5.07081 146.174 4.91524V2.90563H146.173ZM147.304 3.86268C147.578 3.86268 147.728 3.71991 147.728 3.50231V3.49345C147.728 3.25615 147.566 3.12815 147.294 3.12815H146.733V3.8617H147.304V3.86268Z" fill="#2A3A00"/>
</g>
</g>
<defs>
<clipPath id="clip0_59_468">
<rect width="150" height="24.4186" fill="white" transform="translate(0.5 0.148682)"/>
</clipPath>
</defs>
</svg>
