<svg width="92" height="29" viewBox="0 0 92 29" fill="none" xmlns="http://www.w3.org/2000/svg">
<g clip-path="url(#clip0_59_480)">
<mask id="mask0_59_480" style="mask-type:luminance" maskUnits="userSpaceOnUse" x="0" y="0" width="91" height="29">
<path d="M90.6213 0.35791H0.5V28.3579H90.6213V0.35791Z" fill="white"/>
</mask>
<g mask="url(#mask0_59_480)">
<path d="M0.5 17.6554C0.5 11.3367 4.72567 6.91357 10.768 6.91357C14.8357 6.91357 18.153 8.96716 19.4958 12.1265C19.6537 12.4029 19.6932 12.7189 19.6932 13.0348C19.6932 13.7062 19.1403 14.2196 18.5085 14.2196C18.469 14.2196 18.469 14.2196 18.4295 14.2196C17.8371 14.2196 17.3237 13.8247 17.1657 13.2718C16.1389 10.7048 13.7694 9.24361 10.8075 9.24361C6.30536 9.24361 3.10649 12.6794 3.10649 17.6554C3.10649 22.5919 6.22638 26.0278 10.768 26.0278C13.7299 26.0278 15.981 24.606 17.1657 21.6046C17.3237 21.0517 17.8371 20.6568 18.39 20.6568C19.1008 20.6568 19.6537 21.2097 19.6537 21.9206V21.9601C19.6537 22.2365 19.6142 22.513 19.4958 22.7894C18.2715 26.1857 14.9937 28.3578 10.768 28.3578C4.68618 28.3578 0.5 23.9742 0.5 17.6554Z" fill="#2A3A00"/>
<path d="M34.8188 26.6202C34.8188 27.4891 34.3449 28.042 33.5155 28.042C32.6862 28.042 32.2518 27.4891 32.2518 26.6202V1.81912C32.2518 0.910801 32.7257 0.35791 33.555 0.35791C34.3843 0.35791 34.8188 0.871309 34.8188 1.81912V7.46651H39.2814C40.0712 7.46651 40.5451 7.90093 40.5451 8.61179C40.5451 9.32265 40.0712 9.75706 39.2814 9.75706H34.8188V26.6202Z" fill="#2A3A00"/>
<path d="M54.8413 8.84874C54.8413 9.52011 54.3279 10.073 53.6566 10.073C53.6171 10.073 53.5776 10.073 53.5381 10.073C53.1827 10.073 52.8667 9.95453 52.5903 9.79656C51.9584 9.48062 51.2475 9.32265 50.4972 9.36214C47.7327 9.36214 45.9556 11.7712 45.9556 14.8121V26.6202C45.9556 27.5286 45.5212 28.042 44.6918 28.042C43.8625 28.042 43.3886 27.5286 43.3886 26.6202V8.69077C43.3886 7.78245 43.8625 7.22956 44.6918 7.22956C45.5212 7.22956 45.9556 7.74296 45.9556 8.69077V9.20417C47.1009 7.70347 48.9175 6.87413 50.8131 6.91362C51.9979 6.87413 53.1432 7.15058 54.17 7.70347C54.6044 7.94042 54.8413 8.37484 54.8413 8.84874Z" fill="#2A3A00"/>
<path d="M57.4873 8.69071C57.4873 7.78238 57.9612 7.22949 58.7905 7.22949C59.6199 7.22949 60.0543 7.74289 60.0543 8.69071V26.6202C60.0543 27.4891 59.5804 28.042 58.7511 28.042C57.9217 28.042 57.4873 27.4891 57.4873 26.6202V8.69071Z" fill="#2A3A00"/>
<path d="M24.2743 8.69071C24.2743 7.78238 24.7482 7.22949 25.5776 7.22949C26.4069 7.22949 26.8413 7.74289 26.8413 8.69071V26.6202C26.8413 27.4891 26.3674 28.042 25.5381 28.042C24.7088 28.042 24.2743 27.4891 24.2743 26.6202V8.69071Z" fill="#2A3A00"/>
<path d="M25.5776 4.4651C26.7118 4.4651 27.6312 3.54568 27.6312 2.41151C27.6312 1.27734 26.7118 0.35791 25.5776 0.35791C24.4434 0.35791 23.524 1.27734 23.524 2.41151C23.524 3.54568 24.4434 4.4651 25.5776 4.4651Z" fill="#2A3A00"/>
<path d="M73.6001 19.2351L66.531 27.5285C66.2941 27.8444 65.8992 28.0418 65.5042 28.0418C64.8329 28.0418 64.28 27.5285 64.28 26.8571C64.28 26.5017 64.3985 26.1857 64.6354 25.9488L72.0205 17.5764L64.9119 9.40156C64.6354 9.16461 64.4774 8.80918 64.4774 8.45375C64.4774 7.78238 65.0303 7.22949 65.7412 7.26898H65.7807C66.1756 7.26898 66.531 7.46644 66.768 7.78238L73.6396 15.8782L80.5113 7.78238C80.7482 7.46644 81.1037 7.26898 81.4986 7.26898C82.17 7.22949 82.7623 7.74289 82.7623 8.41426V8.45375C82.7623 8.80918 82.6044 9.16461 82.3279 9.40156L75.2193 17.5764L82.6044 25.9488C82.8413 26.1857 82.9598 26.5411 82.9598 26.8571C82.9598 27.5285 82.4069 28.0813 81.7355 28.0418C81.3406 28.0418 80.9457 27.8444 80.7088 27.5285L73.6001 19.2351Z" fill="#2A3A00"/>
<path d="M87.9358 25.8698H87.1855V27.8444H86.8695V25.8698H86.1192V25.6328H87.9358V25.8698ZM90.6213 25.6328V27.8444H90.3449V26.4227L90.3843 25.9883L90.3449 26.1462L89.634 27.8049H89.397L88.6862 26.1462L88.6072 25.9883L88.6467 26.4227V27.8444H88.3702V25.6328H88.7257L89.397 27.2125L89.5155 27.489L89.5945 27.2125L90.2659 25.6328H90.6213Z" fill="#2A3A00"/>
<path d="M73.6001 4.4651C74.7343 4.4651 75.6537 3.54568 75.6537 2.41151C75.6537 1.27734 74.7343 0.35791 73.6001 0.35791C72.466 0.35791 71.5465 1.27734 71.5465 2.41151C71.5465 3.54568 72.466 4.4651 73.6001 4.4651Z" fill="#2A3A00"/>
</g>
</g>
<defs>
<clipPath id="clip0_59_480">
<rect width="91" height="28" fill="white" transform="translate(0.5 0.35791)"/>
</clipPath>
</defs>
</svg>
