<svg width="40" height="12" viewBox="0 0 40 12" fill="none" xmlns="http://www.w3.org/2000/svg">
<g clip-path="url(#clip0_56_807)">
<mask id="mask0_56_807" style="mask-type:luminance" maskUnits="userSpaceOnUse" x="0" y="0" width="39" height="12">
<path d="M38.9139 0H0.290527V12H38.9139V0Z" fill="white"/>
</mask>
<g mask="url(#mask0_56_807)">
<path d="M0.290527 7.41323C0.290527 4.70521 2.10153 2.80957 4.6911 2.80957C6.4344 2.80957 7.8561 3.68968 8.43158 5.0437C8.49926 5.16216 8.51618 5.29759 8.51618 5.43297C8.51618 5.72071 8.27923 5.94074 8.00846 5.94074C7.99153 5.94074 7.99153 5.94074 7.9746 5.94074C7.72071 5.94074 7.50068 5.7715 7.43297 5.53454C6.99291 4.4344 5.97741 3.80816 4.70803 3.80816C2.77854 3.80816 1.40759 5.28066 1.40759 7.41323C1.40759 9.52887 2.74469 11.0014 4.6911 11.0014C5.96048 11.0014 6.92524 10.3921 7.43297 9.10574C7.50068 8.86879 7.72071 8.69954 7.95767 8.69954C8.2623 8.69954 8.49926 8.9365 8.49926 9.24117V9.2581C8.49926 9.37656 8.48233 9.49506 8.43158 9.61351C7.90688 11.0691 6.50211 12 4.6911 12C2.0846 12 0.290527 10.1213 0.290527 7.41323Z" fill="#2A3A00"/>
<path d="M14.9986 11.2553C14.9986 11.6277 14.7955 11.8646 14.44 11.8646C14.0846 11.8646 13.8984 11.6277 13.8984 11.2553V0.626233C13.8984 0.236953 14.1015 0 14.457 0C14.8124 0 14.9986 0.220028 14.9986 0.626233V3.04654H16.9111C17.2496 3.04654 17.4527 3.23272 17.4527 3.53738C17.4527 3.84203 17.2496 4.02821 16.9111 4.02821H14.9986V11.2553Z" fill="#2A3A00"/>
<path d="M23.5797 3.63903C23.5797 3.92676 23.3597 4.16372 23.072 4.16372C23.055 4.16372 23.0381 4.16372 23.0212 4.16372C22.8689 4.16372 22.7334 4.11294 22.615 4.04524C22.3442 3.90984 22.0395 3.84214 21.7179 3.85906C20.5331 3.85906 19.7715 4.89152 19.7715 6.19476V11.2554C19.7715 11.6447 19.5854 11.8647 19.2299 11.8647C18.8745 11.8647 18.6714 11.6447 18.6714 11.2554V3.57133C18.6714 3.18205 18.8745 2.9451 19.2299 2.9451C19.5854 2.9451 19.7715 3.16513 19.7715 3.57133V3.79136C20.2624 3.1482 21.0409 2.79277 21.8533 2.8097C22.3611 2.79277 22.8519 2.91125 23.292 3.1482C23.4782 3.24975 23.5797 3.43593 23.5797 3.63903Z" fill="#2A3A00"/>
<path d="M24.7136 3.57106C24.7136 3.18178 24.9167 2.94482 25.2721 2.94482C25.6276 2.94482 25.8138 3.16485 25.8138 3.57106V11.2551C25.8138 11.6275 25.6107 11.8644 25.2553 11.8644C24.8998 11.8644 24.7136 11.6275 24.7136 11.2551V3.57106Z" fill="#2A3A00"/>
<path d="M10.4795 3.57106C10.4795 3.18178 10.6826 2.94482 11.038 2.94482C11.3935 2.94482 11.5796 3.16485 11.5796 3.57106V11.2551C11.5796 11.6275 11.3765 11.8644 11.0211 11.8644C10.6657 11.8644 10.4795 11.6275 10.4795 11.2551V3.57106Z" fill="#2A3A00"/>
<path d="M11.0381 1.76022C11.5242 1.76022 11.9182 1.36619 11.9182 0.880114C11.9182 0.39404 11.5242 0 11.0381 0C10.552 0 10.158 0.39404 10.158 0.880114C10.158 1.36619 10.552 1.76022 11.0381 1.76022Z" fill="#2A3A00"/>
<path d="M31.6191 8.09021L28.5895 11.6445C28.4879 11.7799 28.3187 11.8645 28.1494 11.8645C27.8617 11.8645 27.6248 11.6445 27.6248 11.3568C27.6248 11.2045 27.6755 11.069 27.7771 10.9675L30.9421 7.37934L27.8956 3.87581C27.7771 3.77426 27.7094 3.62194 27.7094 3.46961C27.7094 3.18188 27.9463 2.94493 28.251 2.96185H28.2679C28.4372 2.96185 28.5895 3.04648 28.691 3.18188L31.636 6.65154L34.581 3.18188C34.6826 3.04648 34.8349 2.96185 35.0042 2.96185C35.2919 2.94493 35.5457 3.16496 35.5457 3.45269V3.46961C35.5457 3.62194 35.4781 3.77426 35.3596 3.87581L32.313 7.37934L35.4781 10.9675C35.5796 11.069 35.6304 11.2214 35.6304 11.3568C35.6304 11.6445 35.3934 11.8814 35.1057 11.8645C34.9364 11.8645 34.7672 11.7799 34.6657 11.6445L31.6191 8.09021Z" fill="#2A3A00"/>
<path d="M37.7629 10.9336H37.4414V11.7799H37.3059V10.9336H36.9844V10.832H37.7629V10.9336ZM38.9138 10.832V11.7799H38.7954V11.1706L38.8123 10.9844L38.7954 11.0521L38.4907 11.7629H38.3891L38.0845 11.0521L38.0507 10.9844L38.0676 11.1706V11.7799H37.9491V10.832H38.1014L38.3891 11.509L38.4399 11.6275L38.4738 11.509L38.7615 10.832H38.9138Z" fill="#2A3A00"/>
<path d="M31.6191 1.76022C32.1052 1.76022 32.4992 1.36619 32.4992 0.880114C32.4992 0.39404 32.1052 0 31.6191 0C31.1331 0 30.739 0.39404 30.739 0.880114C30.739 1.36619 31.1331 1.76022 31.6191 1.76022Z" fill="#2A3A00"/>
</g>
</g>
<defs>
<clipPath id="clip0_56_807">
<rect width="39" height="12" fill="white" transform="translate(0.290527)"/>
</clipPath>
</defs>
</svg>
