<svg width="78" height="12" viewBox="0 0 78 12" fill="none" xmlns="http://www.w3.org/2000/svg">
<g clip-path="url(#clip0_56_771)">
<path d="M9.36261 3.17549H9.79088L11.0114 1.95406L11.0714 1.43549C10.3722 0.817899 9.52718 0.388882 8.61621 0.188962C7.70524 -0.0109584 6.75835 0.0248205 5.86504 0.292919C4.97172 0.561018 4.16143 1.05258 3.51075 1.72118C2.86006 2.38978 2.39043 3.21334 2.14624 4.11406C2.28222 4.05829 2.43284 4.04925 2.57451 4.08835L5.01565 3.68549C5.01565 3.68549 5.13985 3.47978 5.20409 3.49264C5.72716 2.91778 6.45004 2.56473 7.22468 2.50578C7.99937 2.44682 8.76728 2.68641 9.37118 3.17549H9.36261Z" fill="#2A3A00"/>
<path d="M12.7503 4.11423C12.4698 3.08035 11.8938 2.15092 11.0929 1.43994L9.37984 3.15423C9.73689 3.44615 10.023 3.8154 10.2166 4.23411C10.4103 4.65282 10.5063 5.11006 10.4976 5.57137V5.87566C10.6979 5.87566 10.8961 5.91513 11.0811 5.9918C11.2661 6.06847 11.4342 6.18085 11.5757 6.32253C11.7173 6.46422 11.8296 6.63239 11.9062 6.81749C11.9829 7.00263 12.0223 7.20102 12.0223 7.40137C12.0223 7.60173 11.9829 7.80012 11.9062 7.98522C11.8296 8.17036 11.7173 8.33853 11.5757 8.48022C11.4342 8.6219 11.2661 8.73427 11.0811 8.81095C10.8961 8.88762 10.6979 8.92709 10.4976 8.92709H7.44836L7.14429 9.23566V11.0657L7.44836 11.3699H10.4976C11.3491 11.3766 12.1802 11.1088 12.8678 10.6061C13.5554 10.1035 14.0631 9.39273 14.3157 8.57896C14.5684 7.76523 14.5526 6.89167 14.2707 6.08763C13.9887 5.28355 13.4557 4.59162 12.7503 4.11423Z" fill="#2A3A00"/>
<path d="M4.39476 11.3529H7.44409V8.91009H4.39476C4.17752 8.91005 3.96282 8.86325 3.76521 8.77295L3.33694 8.90581L2.1078 10.1272L2.00073 10.5558C2.69001 11.0766 3.53107 11.3567 4.39476 11.3529Z" fill="#2A3A00"/>
<path d="M4.39473 3.42874C3.56853 3.43367 2.76449 3.69672 2.09492 4.18114C1.42535 4.66557 0.923694 5.34712 0.660015 6.13072C0.396334 6.91428 0.383799 7.76071 0.624161 8.55177C0.864521 9.34278 1.34578 10.039 2.00071 10.543L3.76947 8.77304C3.5447 8.67138 3.34792 8.51671 3.19601 8.32227C3.04411 8.12783 2.94162 7.89935 2.89733 7.65657C2.85305 7.41374 2.86829 7.1638 2.94176 6.92821C3.01522 6.69258 3.14471 6.4783 3.31912 6.30378C3.49352 6.12927 3.70764 5.99967 3.9431 5.92617C4.17855 5.85262 4.42833 5.83741 4.67094 5.88172C4.9136 5.92604 5.14186 6.0286 5.33617 6.18061C5.53053 6.33258 5.68507 6.52951 5.78664 6.75447L7.5554 4.98447C7.18413 4.49877 6.70567 4.10562 6.15736 3.83574C5.60904 3.56585 5.00579 3.42655 4.39473 3.42874Z" fill="#2A3A00"/>
<path d="M22.6133 9.64708C22.0883 9.65377 21.5674 9.55434 21.0817 9.35475C20.596 9.15521 20.1555 8.85958 19.7867 8.48565C19.4063 8.12754 19.1044 7.69425 18.9001 7.21322C18.6959 6.7322 18.5938 6.21392 18.6004 5.69137C18.5941 5.16877 18.6963 4.65062 18.9005 4.16963C19.1047 3.68864 19.4065 3.25531 19.7867 2.89706C20.1537 2.51923 20.5933 2.21965 21.0791 2.01637C21.5649 1.81308 22.0868 1.7103 22.6133 1.7142C23.115 1.70751 23.613 1.80068 24.0784 1.9883C24.5438 2.17591 24.9673 2.45422 25.3243 2.80706L24.5619 3.58278C24.0399 3.0779 23.3392 2.80052 22.6133 2.81135C22.2367 2.80672 21.8633 2.88053 21.5168 3.02809C21.1702 3.17566 20.8582 3.39374 20.6004 3.66849C20.3325 3.93445 20.1212 4.25192 19.9791 4.60177C19.8371 4.95161 19.7672 5.32661 19.7739 5.70422C19.7707 6.07747 19.8422 6.44758 19.9842 6.7928C20.1261 7.13797 20.3356 7.45125 20.6004 7.71422C21.1308 8.24308 21.8465 8.54398 22.5952 8.55277C23.3439 8.5616 24.0664 8.27762 24.6091 7.76137C24.945 7.39318 25.1511 6.92501 25.1958 6.42851H22.6261V5.33137H26.2622C26.2979 5.5523 26.3122 5.77618 26.305 5.99994C26.3276 6.46297 26.2561 6.92578 26.0949 7.36035C25.9337 7.79497 25.6861 8.19238 25.3671 8.52851C25.0123 8.89807 24.5838 9.18868 24.1093 9.38141C23.6348 9.57418 23.1251 9.66465 22.6133 9.64708ZM31.0674 8.91851C30.5794 9.38655 29.9296 9.6479 29.2536 9.6479C28.5777 9.6479 27.9279 9.38655 27.4399 8.91851C27.197 8.68284 27.0058 8.39921 26.8782 8.08567C26.7507 7.77212 26.6896 7.43548 26.699 7.09708C26.6899 6.75868 26.7511 6.42212 26.8786 6.10858C27.0061 5.79508 27.1972 5.51145 27.4399 5.27565C27.9284 4.80855 28.578 4.54785 29.2536 4.54785C29.9293 4.54785 30.5789 4.80855 31.0674 5.27565C31.3101 5.51145 31.5012 5.79508 31.6287 6.10858C31.7563 6.42212 31.8174 6.75868 31.8083 7.09708C31.8171 7.43578 31.7554 7.77264 31.6271 8.08618C31.4988 8.39977 31.3068 8.68323 31.0631 8.91851H31.0674ZM28.2408 8.2028C28.3706 8.34148 28.5274 8.45205 28.7016 8.52765C28.8759 8.60325 29.0637 8.64225 29.2536 8.64225C29.4436 8.64225 29.6314 8.60325 29.8057 8.52765C29.9799 8.45205 30.1367 8.34148 30.2665 8.2028C30.4081 8.0564 30.5188 7.88317 30.5924 7.69327C30.666 7.50337 30.7008 7.30065 30.6948 7.09708C30.7011 6.89278 30.6664 6.68934 30.5929 6.49871C30.5194 6.30804 30.4084 6.13408 30.2665 5.98708C30.135 5.84977 29.9771 5.74052 29.8023 5.66591C29.6275 5.59125 29.4394 5.55281 29.2494 5.55281C29.0593 5.55281 28.8712 5.59125 28.6964 5.66591C28.5216 5.74052 28.3637 5.84977 28.2322 5.98708C28.0904 6.13408 27.9794 6.30804 27.9058 6.49871C27.8323 6.68934 27.7976 6.89278 27.804 7.09708C27.7985 7.30095 27.834 7.50384 27.9083 7.69374C27.9826 7.88368 28.0942 8.05674 28.2365 8.2028H28.2408ZM36.6435 8.91851C36.1555 9.38655 35.5057 9.6479 34.8298 9.6479C34.1538 9.6479 33.504 9.38655 33.016 8.91851C32.7731 8.68284 32.5819 8.39921 32.4543 8.08567C32.3268 7.77212 32.2657 7.43548 32.2751 7.09708C32.266 6.75868 32.3272 6.42212 32.4547 6.10858C32.5822 5.79508 32.7733 5.51145 33.016 5.27565C33.504 4.80757 34.1538 4.54623 34.8298 4.54623C35.5057 4.54623 36.1555 4.80757 36.6435 5.27565C36.8862 5.51145 37.0773 5.79508 37.2048 6.10858C37.3324 6.42212 37.3935 6.75868 37.3844 7.09708C37.3938 7.43548 37.3327 7.77212 37.2052 8.08567C37.0777 8.39921 36.8864 8.68284 36.6435 8.91851ZM33.8169 8.2028C33.9467 8.34148 34.1035 8.45205 34.2778 8.52765C34.452 8.60325 34.6399 8.64225 34.8298 8.64225C35.0197 8.64225 35.2075 8.60325 35.3818 8.52765C35.556 8.45205 35.7128 8.34148 35.8426 8.2028C35.9841 8.0564 36.0949 7.88317 36.1685 7.69327C36.2421 7.50337 36.2769 7.30065 36.2709 7.09708C36.2772 6.89278 36.2425 6.68934 36.169 6.49871C36.0955 6.30804 35.9844 6.13408 35.8426 5.98708C35.7111 5.84977 35.5532 5.74052 35.3784 5.66591C35.2036 5.59125 35.0155 5.55281 34.8255 5.55281C34.6354 5.55281 34.4473 5.59125 34.2725 5.66591C34.0978 5.74052 33.9398 5.84977 33.8083 5.98708C33.6665 6.13408 33.5555 6.30804 33.4819 6.49871C33.4084 6.68934 33.3737 6.89278 33.3801 7.09708C33.3746 7.30095 33.4101 7.50384 33.4844 7.69374C33.5587 7.88368 33.6703 8.05674 33.8126 8.2028H33.8169ZM40.3095 11.9357C39.7962 11.952 39.2928 11.7916 38.8834 11.4814C38.5198 11.2079 38.2335 10.8446 38.0525 10.4271L39.0289 10.0199C39.1352 10.2694 39.3015 10.4888 39.5129 10.6585C39.7392 10.841 40.0232 10.9368 40.3138 10.9285C40.498 10.9397 40.6825 10.9111 40.8547 10.8445C41.0269 10.778 41.1828 10.675 41.3116 10.5428C41.5697 10.2313 41.6971 9.83192 41.6671 9.42851V9.05994H41.6286C41.4654 9.25391 41.2593 9.40717 41.0266 9.50758C40.7939 9.608 40.5411 9.65283 40.2881 9.63851C39.9665 9.63945 39.6483 9.57371 39.3534 9.44535C39.0585 9.317 38.7935 9.12885 38.575 8.8928C38.3379 8.65858 38.1508 8.37873 38.0248 8.07007C37.899 7.76141 37.837 7.43038 37.8426 7.09708C37.8367 6.76177 37.8985 6.42877 38.0244 6.11801C38.1502 5.80721 38.3375 5.52508 38.575 5.28851C38.793 5.05142 39.0578 4.86234 39.3527 4.73325C39.6476 4.60413 39.9662 4.53778 40.2881 4.53851C40.5605 4.538 40.8297 4.59804 41.0761 4.71423C41.2893 4.80735 41.4794 4.94638 41.6329 5.12137H41.6714V4.71423H42.7335V9.27851C42.7615 9.63954 42.7155 10.0025 42.5984 10.3452C42.4813 10.6879 42.2956 11.003 42.0525 11.2714C41.8211 11.4929 41.5476 11.6659 41.2482 11.78C40.9488 11.8941 40.6296 11.947 40.3095 11.9357ZM40.3866 8.64422C40.5694 8.64821 40.751 8.61191 40.9182 8.53785C41.0855 8.4638 41.2344 8.35378 41.3545 8.21565C41.6187 7.91261 41.758 7.52042 41.7442 7.11851C41.76 6.70978 41.6208 6.31018 41.3545 5.99994C41.2347 5.86155 41.0857 5.75137 40.9184 5.67731C40.7511 5.60321 40.5695 5.56704 40.3866 5.57137C40.1987 5.56747 40.0122 5.60372 39.8394 5.67761C39.6666 5.7515 39.5115 5.86138 39.3844 5.99994C39.1011 6.29904 38.9472 6.69791 38.9562 7.10994C38.9518 7.31201 38.9874 7.51297 39.0609 7.70124C39.1344 7.88955 39.2443 8.06145 39.3844 8.20708C39.5109 8.34693 39.6657 8.45827 39.8385 8.53365C40.0113 8.60904 40.1981 8.64671 40.3866 8.64422ZM44.6221 2.00135V9.4928H43.5044V2.00135H44.6221ZM47.6885 9.64708C47.3538 9.65565 47.0208 9.59501 46.7105 9.46892C46.4002 9.3428 46.1195 9.15397 45.8855 8.91423C45.6481 8.6762 45.4617 8.3924 45.3374 8.08001C45.2127 7.76762 45.1531 7.43321 45.1617 7.09708C45.1492 6.7601 45.2045 6.42401 45.3245 6.10884C45.4441 5.79371 45.6262 5.50597 45.8598 5.2628C46.0801 5.03068 46.3458 4.84713 46.6411 4.72391C46.9359 4.60065 47.2535 4.54044 47.5728 4.54708C47.8668 4.54395 48.1582 4.60083 48.4295 4.71423C48.6738 4.81288 48.8962 4.95847 49.0848 5.1428C49.2464 5.29901 49.3904 5.47297 49.5129 5.66137C49.6124 5.82041 49.6972 5.98824 49.7658 6.1628L49.8815 6.45422L46.4551 7.86422C46.5588 8.10247 46.7319 8.30368 46.9522 8.44138C47.1725 8.57912 47.4292 8.64684 47.6885 8.63565C47.941 8.63634 48.1891 8.57154 48.4094 8.4476C48.6292 8.32365 48.8131 8.14481 48.9434 7.92851L49.8001 8.50708C49.5815 8.82002 49.3017 9.08535 48.9777 9.28708C48.5924 9.53064 48.1441 9.65582 47.6885 9.64708ZM46.2584 7.01994L48.5367 6.0728C48.4664 5.90578 48.3408 5.76804 48.181 5.6828C48.0022 5.5817 47.7999 5.52992 47.5942 5.5328C47.2458 5.5418 46.9149 5.68811 46.6737 5.93994C46.5292 6.07824 46.4169 6.24675 46.3454 6.43344C46.2734 6.62012 46.2438 6.8204 46.2584 7.01994Z" fill="#2A3A00"/>
<path d="M55.7358 9.64719C55.2605 9.65542 54.7882 9.56739 54.3477 9.38846C53.9071 9.20954 53.5072 8.94339 53.1721 8.60594C52.837 8.26852 52.5734 7.86678 52.3972 7.42488C52.2211 6.98298 52.1358 6.51001 52.147 6.03434C52.1358 5.55867 52.2211 5.08569 52.3972 4.64379C52.5734 4.20188 52.837 3.80016 53.1721 3.46273C53.5072 3.1253 53.9071 2.85913 54.3477 2.6802C54.7882 2.50127 55.2605 2.41327 55.7358 2.42148C56.2171 2.40643 56.6954 2.50037 57.1351 2.69629C57.5748 2.89221 57.9648 3.18504 58.2755 3.55291L57.6588 4.15291C57.4308 3.86572 57.1381 3.63648 56.8047 3.48381C56.4713 3.33115 56.1065 3.25938 55.7401 3.27434C55.3874 3.26639 55.0368 3.32987 54.7094 3.46096C54.382 3.59206 54.0841 3.78807 53.8342 4.0372C53.5745 4.29862 53.3714 4.61101 53.2381 4.95468C53.1048 5.29839 53.044 5.66594 53.059 6.03434C53.044 6.40274 53.1048 6.77028 53.2381 7.11399C53.3714 7.45766 53.5745 7.77005 53.8342 8.03148C54.0841 8.28061 54.382 8.47664 54.7094 8.60769C55.0368 8.73879 55.3874 8.80231 55.7401 8.79434C56.1494 8.79892 56.5544 8.71115 56.9251 8.53754C57.2958 8.36392 57.6228 8.10892 57.8817 7.79148L58.4984 8.40862C58.1752 8.79502 57.7698 9.10402 57.3121 9.31291C56.8184 9.54099 56.2797 9.65525 55.7358 9.64719Z" fill="#2A3A00"/>
<path d="M60.1558 9.49272H59.269V2.57129H60.1558V9.49272Z" fill="#2A3A00"/>
<path d="M61.6035 5.32717C62.0676 4.86552 62.6959 4.60645 63.3508 4.60645C64.0052 4.60645 64.6335 4.86552 65.0981 5.32717C65.3252 5.56722 65.5026 5.84982 65.6201 6.15873C65.7379 6.46765 65.7932 6.79679 65.7833 7.12717C65.7932 7.4576 65.7379 7.78675 65.6201 8.09566C65.5026 8.40457 65.3252 8.68717 65.0981 8.92717C64.6335 9.38887 64.0052 9.64795 63.3508 9.64795C62.6959 9.64795 62.0676 9.38887 61.6035 8.92717C61.3759 8.68717 61.1985 8.40457 61.0811 8.09566C60.9636 7.78675 60.9079 7.4576 60.9182 7.12717C60.9079 6.79679 60.9636 6.46765 61.0811 6.15873C61.1985 5.84982 61.3759 5.56722 61.6035 5.32717ZM62.2626 8.37003C62.4023 8.51776 62.5708 8.63545 62.7576 8.71585C62.9441 8.79625 63.1451 8.83773 63.3486 8.83773C63.5518 8.83773 63.7528 8.79625 63.9396 8.71585C64.1261 8.63545 64.2945 8.51776 64.4342 8.37003C64.5889 8.20366 64.7093 8.0081 64.7882 7.79472C64.8666 7.58133 64.9022 7.3544 64.8923 7.12717C64.9022 6.89995 64.8666 6.67306 64.7882 6.45967C64.7093 6.24629 64.5889 6.05073 64.4342 5.88432C64.2945 5.73663 64.1261 5.61895 63.9396 5.53855C63.7528 5.4581 63.5518 5.41666 63.3486 5.41666C63.1451 5.41666 62.9441 5.4581 62.7576 5.53855C62.5708 5.61895 62.4023 5.73663 62.2626 5.88432C62.1079 6.05073 61.9875 6.24629 61.9091 6.45967C61.8302 6.67306 61.7946 6.89995 61.8045 7.12717C61.7959 7.35402 61.8323 7.5803 61.9116 7.79292C61.9909 8.00553 62.1118 8.20023 62.2669 8.36575L62.2626 8.37003Z" fill="#2A3A00"/>
<path d="M70.6955 9.49266H69.8388V8.83695H69.8131C69.6605 9.08599 69.4449 9.29007 69.1878 9.42837C68.9212 9.58309 68.6182 9.66439 68.3101 9.66409C68.0598 9.68123 67.8087 9.64154 67.5759 9.54803C67.3428 9.45456 67.1341 9.30962 66.9652 9.12409C66.6408 8.71343 66.4775 8.19816 66.5071 7.67552V4.76123H67.3934V7.51266C67.3934 8.39552 67.7829 8.83695 68.5625 8.83695C68.7357 8.84235 68.9079 8.80626 69.0644 8.73173C69.2208 8.65716 69.3571 8.54633 69.4621 8.40837C69.6918 8.11695 69.8144 7.75523 69.8088 7.38409V4.76123H70.6955V9.49266Z" fill="#2A3A00"/>
<path d="M73.7064 9.647C73.4056 9.64799 73.1081 9.58379 72.8347 9.45873C72.5613 9.33372 72.3178 9.15085 72.1216 8.92272C71.6776 8.43196 71.4401 7.78876 71.4577 7.127C71.4401 6.46525 71.6776 5.82205 72.1216 5.33129C72.3178 5.10316 72.5613 4.92029 72.8347 4.79527C73.1081 4.67022 73.4056 4.60602 73.7064 4.607C74.0433 4.60169 74.3763 4.68127 74.6741 4.83843C74.936 4.97035 75.158 5.17015 75.3166 5.417H75.3551L75.3166 4.76129V2.57129H76.2033V9.49272H75.3465V8.837H75.308C75.1494 9.08386 74.9278 9.28366 74.6655 9.41557C74.3703 9.57136 74.0403 9.6509 73.7064 9.647ZM73.8521 8.837C74.0523 8.83992 74.2511 8.80015 74.435 8.72035C74.6188 8.64055 74.7834 8.52256 74.9184 8.37415C75.2197 8.03099 75.3735 7.58292 75.3465 7.127C75.3735 6.67109 75.2197 6.22302 74.9184 5.87986C74.7826 5.73063 74.6175 5.61145 74.4328 5.52989C74.2485 5.44829 74.0493 5.40616 73.8478 5.40616C73.646 5.40616 73.4467 5.44829 73.2624 5.52989C73.0781 5.61145 72.9127 5.73063 72.7768 5.87986C72.6273 6.04863 72.5124 6.2453 72.4391 6.45856C72.3654 6.67186 72.335 6.89755 72.3487 7.12272C72.335 7.34789 72.3654 7.57358 72.4391 7.78688C72.5124 8.00013 72.6273 8.1968 72.7768 8.36557C72.9118 8.51665 73.0777 8.6369 73.2633 8.71825C73.4488 8.79959 73.6494 8.84009 73.8521 8.837Z" fill="#2A3A00"/>
</g>
<defs>
<clipPath id="clip0_56_771">
<rect width="77.5714" height="12" fill="white" transform="translate(0.00488281)"/>
</clipPath>
</defs>
</svg>
