<svg width="68" height="12" viewBox="0 0 68 12" fill="none" xmlns="http://www.w3.org/2000/svg">
<g clip-path="url(#clip0_56_785)">
<mask id="mask0_56_785" style="mask-type:luminance" maskUnits="userSpaceOnUse" x="0" y="0" width="68" height="12">
<path d="M67.1569 0H0.576172V12H67.1569V0Z" fill="white"/>
</mask>
<g mask="url(#mask0_56_785)">
<path d="M12.7798 0.245027C12.2421 -0.0476556 11.582 0.175038 11.3052 0.741314L7.35559 9.24503C7.26332 9.42795 7.18378 9.5536 6.97382 9.5536C6.76387 9.5536 6.68274 9.42795 6.59205 9.24503L2.64402 0.739724C2.36724 0.173447 1.70712 -0.0476556 1.16947 0.243437C0.631826 0.536118 0.421858 1.23124 0.698634 1.79593L4.556 9.66653L4.99502 10.5605C5.37838 11.3447 6.13712 11.8315 6.97541 11.8315C7.81211 11.8315 8.57085 11.3447 8.95579 10.5605L9.39482 9.66653L13.2522 1.79593C13.5274 1.23283 13.3158 0.537708 12.7798 0.245027Z" fill="#2A3A00"/>
<path d="M65.184 0.116337C64.4413 0.113155 63.7907 0.577632 63.4792 1.21549C62.4754 3.26268 59.5247 9.35333 59.5119 9.37403C59.4896 9.41221 59.4274 9.55377 59.3002 9.55377C59.181 9.55377 59.1112 9.42014 59.0889 9.37244C58.1104 7.3507 56.181 3.35812 55.1679 1.29184C54.7779 0.494914 54.1243 0.114746 53.418 0.114746H53.4163C52.3299 0.114746 51.4504 1.03256 51.4504 2.28123V10.6529C51.4504 11.1619 51.7414 11.6328 52.1884 11.7807C52.917 12.0193 53.5419 11.383 53.5419 10.6306L53.3893 2.47053C53.3893 2.38622 53.4913 2.356 53.5294 2.42917L57.5584 10.5845C57.9322 11.3656 58.5814 11.8316 59.3002 11.8316C60.0176 11.8316 60.6669 11.3656 61.0419 10.5845L65.073 2.43076C65.1124 2.35441 65.2174 2.38463 65.2174 2.47371L65.0632 10.68C65.0632 11.329 65.5483 11.8523 66.1419 11.8316C66.7144 11.8125 67.155 11.2621 67.155 10.6306C67.155 10.6306 67.155 4.36977 67.155 2.28442C67.1567 1.02302 66.2739 0.121109 65.184 0.116337Z" fill="#2A3A00"/>
<path d="M50.1126 10.1311L45.673 1.37285C45.2882 0.593427 44.5313 0.109863 43.6977 0.109863C43.1742 0.109863 42.6827 0.299153 42.293 0.633195C42.0592 0.832026 41.8619 1.08335 41.7188 1.37444L37.3015 10.0913C37.2967 10.1008 37.2935 10.1104 37.2888 10.1183L37.2824 10.1311C37.0772 10.5367 37.1265 11.0139 37.3699 11.3607C37.3763 11.3702 37.3826 11.3782 37.389 11.3877C37.3954 11.3972 37.4033 11.4068 37.4113 11.4163C37.4908 11.5197 37.5862 11.6088 37.7024 11.6788C38.0762 11.9047 38.5184 11.8713 38.8524 11.639C38.8572 11.6359 38.8619 11.6326 38.8651 11.6295C38.889 11.612 38.9129 11.5945 38.9351 11.5754C38.9542 11.5595 38.9717 11.542 38.9892 11.5245C38.9972 11.5165 39.0051 11.5102 39.0131 11.5022C39.0926 11.4211 39.161 11.3272 39.2151 11.2191L39.3789 10.8723L40.3031 8.93488C40.327 8.88559 40.3747 8.85375 40.4272 8.85375H44.5073C44.5073 8.85375 44.5073 8.85375 44.509 8.85375C45.0546 8.85375 45.4982 8.38609 45.4982 7.81189C45.4982 7.23606 45.0546 6.76999 44.509 6.76999H42.0608H41.4611C41.3959 6.76999 41.3545 6.70001 41.3784 6.63795L41.6059 6.15598L43.2745 2.79332L43.2808 2.779C43.284 2.77264 43.2872 2.76628 43.2904 2.75992C43.3174 2.70424 43.4065 2.46405 43.5687 2.41474C43.6579 2.3877 43.7517 2.39088 43.8152 2.40997C43.984 2.46087 44.0603 2.66925 44.1336 2.82195L48.1802 11.2239C48.3773 11.612 48.7557 11.8347 49.147 11.8347C49.2713 11.8347 49.3969 11.8108 49.5194 11.7647C49.5276 11.7615 49.5353 11.7599 49.5417 11.7567C49.5717 11.744 49.6004 11.7297 49.6292 11.7138C49.6403 11.709 49.6514 11.7043 49.6609 11.6979C49.6673 11.6947 49.672 11.6899 49.6784 11.6867C49.6866 11.682 49.696 11.6788 49.7042 11.6724C49.7166 11.6645 49.7277 11.6549 49.7406 11.647C49.7517 11.639 49.7612 11.6326 49.7706 11.6247C49.7864 11.612 49.8027 11.6008 49.8186 11.5881C49.8362 11.5738 49.8533 11.5579 49.8709 11.542C49.8756 11.5372 49.8803 11.534 49.8837 11.5293C50.2463 11.1761 50.353 10.6051 50.1126 10.1311Z" fill="#2A3A00"/>
<path d="M15.7591 7.2423H23.2305C23.3721 7.24071 24.5285 7.14686 24.5285 5.83933C24.5301 2.61983 22.0407 0 18.9818 0C15.9245 0 13.4368 2.61983 13.4368 5.84091C13.4368 5.91411 13.4415 6.11773 13.4415 6.14794C13.4368 9.82556 15.8005 11.8044 18.9278 11.9873C19.0773 11.9952 19.2236 12 19.3668 12C20.5693 12 21.5842 11.6882 22.6865 10.9915C22.7994 10.9215 23.24 10.6272 23.6902 10.0467C24.0481 9.58539 24.0799 8.89341 23.6902 8.53393C23.1287 8.01536 22.5513 8.29534 22.0359 8.73437C21.2263 9.42313 20.5995 9.96077 18.985 9.96236C17.4627 9.96236 16.0232 9.09386 15.6812 7.35844C15.6685 7.29797 15.7034 7.2423 15.7591 7.2423ZM15.6764 5.08697C15.8848 3.40085 17.0444 1.90562 18.9786 1.90562C20.9129 1.90562 22.1377 3.37062 22.3318 5.08697C22.3381 5.14899 22.2984 5.20783 22.2379 5.20783H15.7703C15.7098 5.20783 15.6685 5.15057 15.6764 5.08697Z" fill="#2A3A00"/>
<path d="M28.05 7.2423H35.5214C35.663 7.24071 36.8194 7.14686 36.8194 5.83933C36.8194 2.61983 34.33 0 31.2727 0C28.2138 0 25.7261 2.61983 25.7261 5.84091C25.7261 5.91411 25.7308 6.11773 25.7308 6.14794C25.7261 9.82556 28.0898 11.8044 31.2171 11.9873C31.3665 11.9952 31.5129 12 31.656 12C32.8586 12 33.8735 11.6882 34.9758 10.9915C35.0887 10.9215 35.5293 10.6272 35.9795 10.0467C36.3374 9.58539 36.3692 8.89341 35.9795 8.53393C35.418 8.01536 34.8406 8.29534 34.3252 8.73437C33.5156 9.42313 32.8888 9.96077 31.2743 9.96236C29.752 9.96236 28.3125 9.09386 27.9705 7.35844C27.9578 7.29797 27.9927 7.2423 28.05 7.2423ZM27.9657 5.08697C28.1741 3.40085 29.3337 1.90562 31.2679 1.90562C33.2022 1.90562 34.427 3.37062 34.6211 5.08697C34.6274 5.14899 34.5876 5.20783 34.5272 5.20783H28.058C27.9991 5.20783 27.9578 5.15057 27.9657 5.08697Z" fill="#2A3A00"/>
</g>
</g>
<defs>
<clipPath id="clip0_56_785">
<rect width="66.8571" height="12" fill="white" transform="translate(0.576172)"/>
</clipPath>
</defs>
</svg>
