<svg width="66" height="12" viewBox="0 0 66 12" fill="none" xmlns="http://www.w3.org/2000/svg">
<g clip-path="url(#clip0_56_764)">
<mask id="mask0_56_764" style="mask-type:luminance" maskUnits="userSpaceOnUse" x="0" y="0" width="66" height="12">
<path d="M65.6568 0H0.43335V12H65.6568V0Z" fill="white"/>
</mask>
<g mask="url(#mask0_56_764)">
<path d="M64.782 9.62646V9.44594H64.8956C64.9556 9.44594 65.0426 9.45263 65.0426 9.52617C65.0426 9.59971 64.9959 9.62646 64.9222 9.62646H64.782ZM64.782 9.75344H64.8622L65.0426 10.0677H65.2367L65.0362 9.74007C65.1365 9.74676 65.2166 9.67326 65.223 9.57297V9.54623C65.223 9.3724 65.103 9.31896 64.9025 9.31896H64.6149V10.0677H64.782V9.75344ZM65.6242 9.69331C65.6242 9.2521 65.2835 8.99804 64.9025 8.99804C64.5215 8.99804 64.1803 9.2521 64.1803 9.69331C64.1803 10.1345 64.5215 10.3885 64.9025 10.3885C65.2835 10.3885 65.6242 10.1345 65.6242 9.69331ZM65.4103 9.69331C65.4236 9.97407 65.2033 10.2147 64.9222 10.2281H64.9025C64.608 10.2415 64.3607 10.0075 64.3475 9.71337C64.3342 9.4192 64.5682 9.17187 64.8622 9.1585C65.1562 9.14513 65.4035 9.37909 65.4172 9.67326C65.4103 9.67994 65.4103 9.68663 65.4103 9.69331ZM39.1184 2.2663V10.1545H41.3445V2.2663H39.1184ZM21.6038 2.25293V10.1479H23.8499V4.01776L25.6014 4.02445C26.1763 4.02445 26.5774 4.16483 26.8514 4.45896C27.2057 4.83332 27.3461 5.44167 27.3461 6.54469V10.1479H29.5254V5.78929C29.5254 2.67408 27.54 2.25293 25.6014 2.25293H21.6038ZM42.7082 2.2663V10.1545H46.3179C48.2435 10.1545 48.8717 9.83367 49.5467 9.11839C50.028 8.617 50.3357 7.5073 50.3357 6.29732C50.3357 5.18762 50.0752 4.19825 49.6136 3.58324C48.798 2.48022 47.6083 2.2663 45.8302 2.2663H42.7082ZM44.9143 3.97765H45.87C47.2607 3.97765 48.1565 4.59936 48.1565 6.21713C48.1565 7.83486 47.2607 8.46327 45.87 8.46327H44.9143V3.97765ZM35.9096 2.2663L34.0512 8.51676L32.273 2.2663H29.8664L32.4067 10.1545H35.6154L38.1825 2.2663H35.9096ZM51.3785 10.1545H53.6049V2.2663H51.3785V10.1545ZM57.6223 2.2663L54.5139 10.1479H56.7065L57.201 8.75071H60.8777L61.3457 10.1412H63.7325L60.597 2.2663H57.6223ZM59.0662 3.70357L60.4166 7.39369H57.6759L59.0662 3.70357Z" fill="#2A3A00"/>
<path d="M7.23771 3.57679V2.49383C7.34464 2.48714 7.45161 2.48046 7.55858 2.48046C10.5267 2.38687 12.472 5.03413 12.472 5.03413C12.472 5.03413 10.3729 7.94876 8.1201 7.94876C7.81928 7.94876 7.52515 7.90196 7.2444 7.80836V4.51937C8.40085 4.65977 8.63485 5.1678 9.3234 6.3243L10.8676 5.02744C10.8676 5.02744 9.73787 3.55006 7.83934 3.55006C7.63877 3.54337 7.43824 3.55674 7.23771 3.57679ZM7.23771 -0.00634766V1.61141L7.55858 1.59136C11.6832 1.45097 14.3772 4.97396 14.3772 4.97396C14.3772 4.97396 11.2888 8.7309 8.0733 8.7309C7.79254 8.7309 7.51847 8.70416 7.2444 8.65736V9.66013C7.47167 9.68687 7.70563 9.70693 7.93294 9.70693C10.9278 9.70693 13.0937 8.17607 15.1928 6.3711C15.5404 6.65186 16.9643 7.32707 17.2584 7.6212C15.2664 9.29246 10.6203 10.6361 7.98643 10.6361C7.73237 10.6361 7.49173 10.6227 7.25104 10.596V12.0065H18.6289V-0.00634766H7.23771ZM7.23771 7.80836V8.66404C4.47011 8.16939 3.70135 5.28814 3.70135 5.28814C3.70135 5.28814 5.03164 3.81745 7.23771 3.57679V4.51269H7.23103C6.07453 4.37229 5.16535 5.45529 5.16535 5.45529C5.16535 5.45529 5.68011 7.28027 7.23771 7.80836ZM2.32424 5.1678C2.32424 5.1678 3.96206 2.74786 7.2444 2.49383V1.61141C3.60775 1.90555 0.46582 4.98064 0.46582 4.98064C0.46582 4.98064 2.24402 10.128 7.23771 10.596V9.66013C3.57433 9.20554 2.32424 5.1678 2.32424 5.1678Z" fill="#2A3A00"/>
</g>
</g>
<defs>
<clipPath id="clip0_56_764">
<rect width="65.5714" height="12" fill="white" transform="translate(0.43335)"/>
</clipPath>
</defs>
</svg>
