<svg width="70" height="12" viewBox="0 0 70 12" fill="none" xmlns="http://www.w3.org/2000/svg">
<g clip-path="url(#clip0_56_782)">
<path d="M7.77615 12H4.91899C4.23329 12 3.66187 11.6571 3.43329 11.2L0.919008 6.85714C0.576151 6.28573 0.576151 5.71427 0.919008 5.14286L3.43329 0.800001C3.66187 0.342857 4.23329 0 4.91899 0H9.8333C10.4047 0 10.9762 0.342857 11.319 0.800001L13.8333 5.14286C14.0619 5.71427 14.0619 6.28573 13.8333 6.85714L13.1476 7.88571C12.8047 8.45713 12.2333 8.68573 11.6619 8.68573H8.69042L10.2905 5.94287L8.80472 3.42857H5.83331L4.34758 5.94287L7.77615 12Z" fill="#2A3A00"/>
<path d="M18.862 6.05732C19.3191 6.05732 19.662 5.82872 19.662 5.2573C19.662 4.80015 19.4334 4.57159 18.862 4.57159H18.5191V6.05732H18.862ZM18.5191 8.91443H17.1477V3.54302H19.0905C20.3477 3.54302 21.1477 4.11445 21.1477 5.2573C21.1477 6.51443 20.2334 7.08589 18.862 7.08589H18.5191V8.91443ZM23.2048 3.54302V6.97159C23.2048 7.543 23.5477 7.77161 24.0048 7.77161C24.462 7.77161 24.6906 7.543 24.6906 6.97159V3.54302H26.062V7.20015C26.062 8.22872 25.262 8.91443 24.0048 8.91443C22.6334 8.91443 21.9477 8.34302 21.9477 7.08589V3.54302H23.2048ZM32.0048 3.54302H35.5477V4.68589H33.3762V5.60016H35.2048V6.74303H33.3762V7.6573H35.5477V8.91443H32.0048V3.54302ZM36.8048 7.88586C37.0334 8.00016 37.6048 8.34302 38.2905 8.34302C38.862 8.34302 39.4334 8.11446 39.4334 7.31445C39.4334 6.62873 38.862 6.51443 38.1762 6.28588C37.3763 6.05732 36.6906 5.82872 36.6906 4.80015C36.6906 3.88588 37.3763 3.31445 38.4049 3.31445C39.0906 3.31445 39.7763 3.65731 40.1191 4.00017L39.7763 4.45729C39.3191 4.11445 38.862 3.88588 38.4049 3.88588C37.9477 3.88588 37.3763 4.11445 37.3763 4.68589C37.3763 5.3716 37.8334 5.60016 38.5191 5.71446C39.3191 5.94302 40.1191 6.28588 40.1191 7.31445C40.1191 8.34302 39.4334 8.91443 38.2905 8.91443C37.4905 8.91443 36.8048 8.57158 36.5763 8.34302L36.8048 7.88586ZM44.462 3.54302V4.11445H42.862V8.91443H42.2905V4.11445H40.6905V3.54302H44.462ZM47.0904 8.34302C48.2334 8.34302 48.5763 7.20015 48.5763 6.17158C48.5763 5.143 48.3478 3.88588 47.0904 3.88588C45.9478 3.88588 45.4905 5.02875 45.4905 6.05732C45.4905 7.08589 45.8334 8.34302 47.0904 8.34302ZM47.0904 8.91443C45.719 8.91443 44.9193 7.88586 44.9193 6.05732C44.9193 4.00017 46.0618 3.31445 47.0904 3.31445C48.2334 3.31445 49.262 4.00017 49.262 6.05732C49.262 8.00016 48.3478 8.91443 47.0904 8.91443ZM56.0047 6.74303H57.719L56.8048 4.11445L56.0047 6.74303ZM54.6333 8.91443L56.462 3.54302H57.2621L59.2048 8.91443H58.5191L57.9478 7.20015H55.7763L55.205 8.91443H54.6333ZM63.3191 8.34302C62.8618 8.68588 62.2905 8.91443 61.6048 8.91443C60.2334 8.91443 59.3193 8.00016 59.3193 6.05732C59.3193 4.00017 60.5763 3.31445 61.6048 3.31445C62.0621 3.31445 62.7478 3.54302 63.3191 4.22874L62.8618 4.57159C62.519 4.11445 62.0621 3.88588 61.6048 3.88588C60.5763 3.88588 60.005 4.68589 60.005 6.05732C60.005 7.543 60.4618 8.34302 61.6048 8.34302L62.6334 8.11446V6.51443H61.4904V5.94302H63.3191V8.34302ZM64.4621 3.54302H67.4334V4.11445H65.1478V5.82872H67.0905V6.40018H65.1478V8.34302H67.4334V8.91443H64.4621V3.54302ZM51.662 6.40018H50.8618V4.00017H51.5475C52.4621 4.00017 53.1478 4.11445 53.1478 5.2573C53.1478 6.05732 52.5761 6.40018 51.662 6.40018ZM53.2618 7.20015C53.1478 6.85729 53.0334 6.74303 52.805 6.74303C53.4907 6.40018 53.8335 5.94302 53.8335 5.143C53.8335 4.00017 53.1478 3.54302 52.0048 3.54302H50.1761V8.91443H50.8618V6.85729H52.0048C52.3477 6.85729 52.4621 7.08589 52.5761 7.42875L53.2618 8.80018H53.9475L53.2618 7.20015ZM28.462 6.05732V4.57159H28.8048C29.262 4.57159 29.6048 4.80015 29.6048 5.2573C29.6048 5.82872 29.262 6.05732 28.6905 6.05732H28.462ZM30.5191 7.20015L30.1763 6.74303C30.6334 6.40018 30.9762 5.94302 30.9762 5.2573C30.9762 4.11445 30.1763 3.54302 29.0334 3.54302H27.0906V8.91443H28.3477V7.08589H28.8048L29.1477 7.42875L29.7191 8.91443H31.2048L30.5191 7.20015ZM68.5764 4.00017L68.8048 3.88588L68.5764 3.77159H68.462V4.00017H68.5764ZM68.462 4.45729H68.3475V3.65731H68.5764C68.8048 3.65731 68.9193 3.77159 68.9193 3.88588L68.6904 4.11445L68.9193 4.45729H68.8048L68.5764 4.11445H68.462V4.45729ZM68.5764 3.42874C68.2336 3.42874 68.0047 3.65731 68.0047 4.00017C68.0047 4.34303 68.2336 4.57159 68.5764 4.57159C68.9193 4.57159 69.1477 4.34303 69.1477 4.00017C69.1477 3.65731 68.9193 3.42874 68.5764 3.42874ZM68.5764 4.68589C68.1191 4.68589 67.8907 4.45729 67.8907 4.00017C67.8907 3.54302 68.2336 3.31445 68.5764 3.31445C68.9193 3.31445 69.2621 3.54302 69.2621 4.00017C69.2621 4.45729 68.9193 4.68589 68.5764 4.68589Z" fill="#2A3A00"/>
</g>
<defs>
<clipPath id="clip0_56_782">
<rect width="69" height="12" fill="white" transform="translate(0.576172)"/>
</clipPath>
</defs>
</svg>
