<svg width="75" height="12" viewBox="0 0 75 12" fill="none" xmlns="http://www.w3.org/2000/svg">
<mask id="mask0_56_795" style="mask-type:luminance" maskUnits="userSpaceOnUse" x="0" y="0" width="75" height="12">
<path d="M74.2459 0H0.576172V12H74.2459V0Z" fill="white"/>
</mask>
<g mask="url(#mask0_56_795)">
<path d="M32.4627 10.5966L29.2814 1.74174C29.2407 1.61932 29.1802 1.45771 29.1802 1.31593C29.1802 0.932225 29.5046 0.567871 29.9693 0.567871C30.3751 0.567871 30.6394 0.831095 30.7604 1.2148L33.3967 8.84547L36.0518 1.19545C36.1729 0.832548 36.4164 0.56932 36.8197 0.56932H36.902C37.3286 0.56932 37.5919 0.832548 37.7129 1.19545L40.3463 8.84547L43.0242 1.1761C43.1254 0.85045 43.3466 0.56884 43.7735 0.56884C44.2192 0.56884 44.5441 0.911418 44.5441 1.29706C44.5441 1.43836 44.4824 1.59948 44.4429 1.72287L41.241 10.5971C41.0774 11.0606 40.7544 11.304 40.3889 11.304H40.3284C39.9227 11.304 39.6181 11.0606 39.4753 10.5971L36.8623 3.07287L34.2265 10.5971C34.0847 11.0606 33.7796 11.304 33.3754 11.304H33.3328C32.9489 11.304 32.6259 11.0606 32.4627 10.5971" fill="#2A3A00"/>
<path d="M55.6541 1.35459C55.6541 0.927339 55.9986 0.5625 56.4242 0.5625C56.8733 0.5625 57.2171 0.9075 57.2171 1.35459V3.15121C57.9876 1.40637 59.6972 0.582823 60.8303 0.582823C61.2992 0.582823 61.6039 0.927339 61.6039 1.37347C61.6039 1.80024 61.3211 2.10315 60.9118 2.16411C58.8803 2.4075 57.2175 3.93024 57.2175 6.95444V10.5124C57.2175 10.9386 56.8931 11.303 56.4465 11.303C55.9999 11.303 55.6545 10.9565 55.6545 10.5124L55.6541 1.35266V1.35459Z" fill="#2A3A00"/>
<path d="M66.6443 11.4192C63.8183 11.4192 61.5122 9.22873 61.5122 6.01436V5.97274C61.5122 2.98098 63.6019 0.572754 66.4459 0.572754C69.4879 0.572754 71.2202 3.08114 71.2202 5.83243C71.2202 6.25534 70.8791 6.55774 70.5032 6.55774H63.0666C63.2835 8.80534 64.8542 10.0702 66.6868 10.0702C67.9605 10.0702 68.8922 9.5679 69.6495 8.86483C69.7691 8.76566 69.9083 8.68534 70.0884 8.68534C70.4651 8.68534 70.7646 8.9868 70.7646 9.34967C70.7646 9.52967 70.6853 9.71113 70.5242 9.85003C69.5505 10.7931 68.3951 11.4177 66.6461 11.4177M69.6894 5.4129C69.5295 3.5234 68.4546 1.87824 66.4052 1.87824C64.6151 1.87824 63.2621 3.38356 63.0658 5.4129H69.6894Z" fill="#2A3A00"/>
<path d="M44.6152 8.17763V8.137C44.6152 5.93248 46.4375 4.75763 49.0882 4.75763C50.4249 4.75763 51.3759 4.93956 52.3089 5.20425V4.83842C52.3089 2.9586 51.1518 1.98602 49.1902 1.98602C48.1372 1.98602 47.5244 2.12005 46.7538 2.46311C46.6539 2.50376 46.5519 2.52456 46.4727 2.52456C46.1084 2.52456 45.7831 2.22021 45.7831 1.85682C45.7831 1.53408 45.9237 1.33424 46.2091 1.20795C47.2398 0.760852 48.0168 0.612305 49.3522 0.612305C50.8287 0.612305 51.9627 0.995533 52.7307 1.76489C53.4404 2.47279 53.8051 3.48408 53.8051 4.82003V10.5926C53.8051 11.0363 53.4811 11.361 53.0534 11.361C52.6102 11.361 52.3094 11.0368 52.3094 10.6328V9.63503C51.5791 10.5878 50.3637 11.436 48.5251 11.436C46.5807 11.4346 44.6152 10.3231 44.6152 8.17857M52.3278 7.36909V6.35732C51.5568 6.13519 50.5235 5.91216 49.2489 5.91216C47.2882 5.91216 46.1937 6.76279 46.1937 8.07649V8.11665C46.1937 9.43133 47.4069 10.2002 48.8255 10.2002C50.7477 10.2002 52.3278 9.02633 52.3278 7.36909Z" fill="#2A3A00"/>
<path d="M4.13957 1.25804C3.79679 0.507076 2.94951 0.166914 2.1584 0.518206C1.36631 0.869977 1.07485 1.74772 1.43264 2.49917L4.75445 9.71367C5.27687 10.8445 5.82737 11.4373 6.86052 11.4373C7.96444 11.4373 8.44568 10.7917 8.96759 9.71367C8.96759 9.71367 11.8648 3.40885 11.8938 3.34111C11.9234 3.27433 12.0164 3.07062 12.3112 3.07256C12.5605 3.07401 12.7702 3.27288 12.7702 3.53998V9.7045C12.7702 10.6548 13.2975 11.4343 14.3122 11.4343C15.3261 11.4343 15.8741 10.6548 15.8741 9.7045V4.65773C15.8741 3.68465 16.5718 3.05321 17.5227 3.05321C18.4736 3.05321 19.1063 3.7074 19.1063 4.65773V9.7045C19.1063 10.6548 19.6356 11.4343 20.6484 11.4343C21.6622 11.4343 22.2132 10.6548 22.2132 9.7045V4.65773C22.2132 3.68465 22.908 3.05321 23.8593 3.05321C24.8088 3.05321 25.444 3.7074 25.444 4.65773V9.7045C25.444 10.6548 25.9727 11.4343 26.9865 11.4343C27.9999 11.4343 28.5499 10.6548 28.5499 9.7045V3.96095C28.5499 1.85078 26.8519 0.372559 24.8088 0.372559C22.7681 0.372559 21.4899 1.78353 21.4899 1.78353C20.8106 0.903367 19.8742 0.374495 18.2896 0.374495C16.6173 0.374495 15.1537 1.78353 15.1537 1.78353C14.4739 0.903367 13.3168 0.374495 12.3587 0.374495C10.8766 0.374495 9.69964 1.02578 8.98165 2.66659L6.86052 7.66497L4.13957 1.25804Z" fill="#2A3A00"/>
<path d="M71.3406 1.88699V1.87828C71.3406 1.17231 71.914 0.577637 72.6344 0.577637C73.3651 0.577637 73.9304 1.16602 73.9304 1.87296V1.87828C73.9304 2.58667 73.3587 3.18135 72.6344 3.18135C71.9037 3.18135 71.3406 2.59489 71.3406 1.88699ZM73.6819 1.87828V1.87489C73.6819 1.29425 73.2327 0.818121 72.6344 0.818121C72.0413 0.818121 71.5857 1.30248 71.5857 1.87828V1.88505C71.5857 2.46425 72.0361 2.94038 72.6344 2.94038C73.2254 2.94038 73.6819 2.45699 73.6819 1.87828Z" fill="#2A3A00"/>
<path d="M72.1638 1.3547C72.1638 1.27776 72.2251 1.21631 72.3031 1.21631H72.7351C72.898 1.21631 73.0231 1.26228 73.1011 1.34454C73.1723 1.41373 73.2108 1.51389 73.2108 1.63002V1.63389C73.2108 1.83131 73.1114 1.95179 72.9605 2.01518L73.1512 2.24744C73.1782 2.28228 73.1958 2.31083 73.1958 2.35341C73.1958 2.42986 73.1311 2.48018 73.0651 2.48018C73.0038 2.48018 72.9622 2.44873 72.9297 2.40905L72.661 2.06938H72.4407V2.34228C72.4407 2.41921 72.3811 2.4797 72.3035 2.4797C72.226 2.4797 72.1642 2.41873 72.1642 2.34228V1.3547H72.1638ZM72.7197 1.82502C72.8543 1.82502 72.9284 1.75486 72.9284 1.64792V1.64357C72.9284 1.52695 72.8487 1.46405 72.715 1.46405H72.4394V1.82454H72.7197V1.82502Z" fill="#2A3A00"/>
</g>
</svg>
