<svg width="41" height="41" viewBox="0 0 41 41" fill="none" xmlns="http://www.w3.org/2000/svg">
<path d="M20.9333 14.5612C19.2757 14.5612 17.686 15.2196 16.5139 16.3917C15.3418 17.5638 14.6833 19.1536 14.6833 20.8112C14.6833 22.4688 15.3418 24.0585 16.5139 25.2306C17.686 26.4027 19.2757 27.0612 20.9333 27.0612C22.591 27.0612 24.1807 26.4027 25.3528 25.2306C26.5249 24.0585 27.1833 22.4688 27.1833 20.8112C27.1833 19.1536 26.5249 17.5638 25.3528 16.3917C24.1807 15.2196 22.591 14.5612 20.9333 14.5612Z" fill="#C6FF29"/>
<path fill-rule="evenodd" clip-rule="evenodd" d="M11.6878 5.07116C17.8327 4.39116 24.0341 4.39116 30.179 5.07116C33.5361 5.44531 36.2426 8.08378 36.6368 11.4476C37.3655 17.6681 37.3655 23.9523 36.6368 30.1728C36.2426 33.5366 33.5361 36.1751 30.1808 36.551C24.0353 37.2312 17.8333 37.2312 11.6878 36.551C8.3307 36.1751 5.62418 33.5366 5.22996 30.1746C4.50115 23.9534 4.50115 17.6687 5.22996 11.4476C5.62418 8.08378 8.3307 5.44531 11.6878 5.07116ZM29.7724 10.221C29.3036 10.221 28.8539 10.407 28.5224 10.7379C28.1909 11.0689 28.0046 11.5178 28.0046 11.9859C28.0046 12.454 28.1909 12.9029 28.5224 13.2338C28.8539 13.5648 29.3036 13.7508 29.7724 13.7508C30.2413 13.7508 30.6909 13.5648 31.0225 13.2338C31.354 12.9029 31.5402 12.454 31.5402 11.9859C31.5402 11.5178 31.354 11.0689 31.0225 10.7379C30.6909 10.407 30.2413 10.221 29.7724 10.221ZM12.5363 20.8102C12.5363 18.5869 13.421 16.4546 14.9958 14.8825C16.5705 13.3103 18.7063 12.4271 20.9334 12.4271C23.1604 12.4271 25.2963 13.3103 26.871 14.8825C28.4458 16.4546 29.3305 18.5869 29.3305 20.8102C29.3305 23.0335 28.4458 25.1658 26.871 26.7379C25.2963 28.3101 23.1604 29.1933 20.9334 29.1933C18.7063 29.1933 16.5705 28.3101 14.9958 26.7379C13.421 25.1658 12.5363 23.0335 12.5363 20.8102Z" fill="#C6FF29"/>
</svg>
