<svg width="25" height="24" viewBox="0 0 25 24" fill="none" xmlns="http://www.w3.org/2000/svg">
<g clip-path="url(#clip0_11_2619)">
<path d="M14.0267 18.44L20.4333 12L14.0267 5.56001C13.9688 5.48403 13.8953 5.42137 13.8111 5.37627C13.7269 5.33116 13.6341 5.30467 13.5387 5.29859C13.4434 5.29251 13.3479 5.30698 13.2587 5.34102C13.1695 5.37506 13.0886 5.42787 13.0215 5.49588C12.9545 5.56389 12.9028 5.64552 12.8701 5.73523C12.8373 5.82494 12.8242 5.92064 12.8317 6.01586C12.8391 6.11107 12.8669 6.20357 12.9132 6.28711C12.9595 6.37064 13.0232 6.44324 13.1 6.50001L17.8933 11.3333L5.14002 11.3333C4.96321 11.3333 4.79364 11.4036 4.66861 11.5286C4.54359 11.6536 4.47335 11.8232 4.47335 12C4.47335 12.1768 4.54359 12.3464 4.66861 12.4714C4.79364 12.5964 4.96321 12.6667 5.14002 12.6667L17.8933 12.6667L13.1 17.5C12.9754 17.6255 12.9057 17.7955 12.9063 17.9724C12.9069 18.1493 12.9778 18.3187 13.1033 18.4433C13.2289 18.568 13.3988 18.6377 13.5757 18.6371C13.7526 18.6364 13.922 18.5655 14.0467 18.44L14.0267 18.44Z" fill="#295BFF"/>
</g>
<defs>
<clipPath id="clip0_11_2619">
<rect width="24" height="24" fill="white" transform="translate(24.4333) rotate(90)"/>
</clipPath>
</defs>
</svg>
