<svg width="41" height="41" viewBox="0 0 41 41" fill="none" xmlns="http://www.w3.org/2000/svg">
<path d="M34.9334 2.81116H6.93335C4.73335 2.81116 2.93335 4.61116 2.93335 6.81116V34.8112C2.93335 37.0132 4.73335 38.8112 6.93335 38.8112H20.9334V24.8112H16.9334V19.8612H20.9334V15.7612C20.9334 11.4332 23.3574 8.39316 28.4654 8.39316L32.0714 8.39716V13.6072H29.6774C27.6894 13.6072 26.9334 15.0992 26.9334 16.4832V19.8632H32.0694L30.9334 24.8112H26.9334V38.8112H34.9334C37.1334 38.8112 38.9334 37.0132 38.9334 34.8112V6.81116C38.9334 4.61116 37.1334 2.81116 34.9334 2.81116Z" fill="#C6FF29"/>
</svg>
