<svg width="53" height="52" viewBox="0 0 53 52" fill="none" xmlns="http://www.w3.org/2000/svg">
<g id="fluent:design-ideas-24-filled">
<path id="Vector" d="M12.5124 4.49355C12.7883 4.62618 13.0211 4.83403 13.184 5.09315C13.3469 5.35227 13.4333 5.65214 13.4333 5.95822C13.4333 7.75655 14.1093 8.79222 14.9564 10.0532L15.0193 10.1442C15.7386 11.2146 16.6833 12.6164 16.6833 14.6249C16.6833 16.6746 15.6498 18.4816 14.0746 19.5541C14.4884 19.9007 14.8546 20.3276 15.1709 20.8389C16.2023 22.5072 16.6833 25.0574 16.6833 28.719C16.6833 32.4284 16.1849 36.8831 15.3724 40.4407C14.9694 42.2087 14.4689 43.8402 13.8731 45.0644C13.5918 45.6735 13.2192 46.2361 12.7681 46.7327C12.3218 47.1899 11.6349 47.6774 10.7249 47.6774C9.81494 47.6774 9.1281 47.1899 8.68394 46.7327C8.23156 46.2371 7.85879 45.6743 7.57894 45.0644C6.98094 43.8381 6.48044 42.2087 6.07744 40.4386C5.23232 36.5878 4.79298 32.6592 4.7666 28.7169C4.7666 25.0552 5.2476 22.5072 6.27894 20.8389C6.57316 20.3546 6.94333 19.9208 7.37527 19.5541C6.57095 19.008 5.91263 18.2732 5.45788 17.4139C5.00313 16.5546 4.76579 15.5971 4.7666 14.6249C4.7666 13.8276 4.7666 12.4561 5.59644 10.6859C6.40894 8.95255 7.95377 6.96138 10.7921 4.68855C11.0313 4.4972 11.3198 4.37736 11.6241 4.34286C11.9285 4.30836 12.2365 4.3606 12.5124 4.49355ZM22.0999 32.32C20.9521 32.1275 19.8355 31.7806 18.7806 31.2887C18.8261 30.409 18.8499 29.5467 18.8499 28.719C18.8499 27.8394 18.8239 26.9987 18.7676 26.1971C19.7274 26.9879 20.8606 27.575 22.0999 27.8935V22.7499C22.0999 21.8879 22.4423 21.0613 23.0518 20.4518C23.6613 19.8423 24.488 19.4999 25.3499 19.4999H32.9333C32.9335 17.8467 32.4609 16.228 31.5712 14.8346C30.6815 13.4413 29.4118 12.3315 27.912 11.6361C26.4122 10.9407 24.7448 10.6888 23.1065 10.9101C21.4682 11.1314 19.9273 11.8167 18.6658 12.8851C18.2909 11.1214 17.4199 9.83005 16.8631 9.00455L16.7764 8.87455C18.7231 7.50228 21.0093 6.69117 23.3856 6.52976C25.7618 6.36834 28.1367 6.86283 30.2511 7.95924C32.3654 9.05566 34.1379 10.7118 35.3751 12.747C36.6123 14.7822 37.2666 17.1182 37.2666 19.4999H44.8499C45.7119 19.4999 46.5385 19.8423 47.148 20.4518C47.7575 21.0613 48.0999 21.8879 48.0999 22.7499V42.2499C48.0999 43.1118 47.7575 43.9385 47.148 44.548C46.5385 45.1575 45.7119 45.4999 44.8499 45.4999H25.3499C24.488 45.4999 23.6613 45.1575 23.0518 44.548C22.4423 43.9385 22.0999 43.1118 22.0999 42.2499V32.32ZM26.4333 32.32V41.1666H43.7666V23.8332H36.5278C35.7533 26.0189 34.409 27.958 32.6339 29.4501C30.8588 30.9421 28.7174 31.9329 26.4311 32.32H26.4333ZM31.7741 23.8332H26.4333V27.8935C27.5483 27.6048 28.5947 27.0971 29.5116 26.4C30.4285 25.7029 31.1976 24.8304 31.7741 23.8332Z" fill="#C74500"/>
</g>
</svg>
