<svg width="53" height="52" viewBox="0 0 53 52" fill="none" xmlns="http://www.w3.org/2000/svg">
<g id="fluent:card-ui-20-filled">
<path id="Vector" d="M5.6333 16.8999C5.6333 15.176 6.31812 13.5227 7.53711 12.3037C8.75609 11.0847 10.4094 10.3999 12.1333 10.3999H40.7333C42.4572 10.3999 44.1105 11.0847 45.3295 12.3037C46.5485 13.5227 47.2333 15.176 47.2333 16.8999V35.0999C47.2333 36.8238 46.5485 38.4771 45.3295 39.6961C44.1105 40.9151 42.4572 41.5999 40.7333 41.5999H12.1333C10.4094 41.5999 8.75609 40.9151 7.53711 39.6961C6.31812 38.4771 5.6333 36.8238 5.6333 35.0999V16.8999ZM25.1333 15.5999H12.1333C11.7885 15.5999 11.4579 15.7369 11.2141 15.9807C10.9703 16.2245 10.8333 16.5551 10.8333 16.8999C10.8333 17.2447 10.9703 17.5753 11.2141 17.8191C11.4579 18.0629 11.7885 18.1999 12.1333 18.1999H25.1333C25.4781 18.1999 25.8087 18.0629 26.0525 17.8191C26.2963 17.5753 26.4333 17.2447 26.4333 16.8999C26.4333 16.5551 26.2963 16.2245 26.0525 15.9807C25.8087 15.7369 25.4781 15.5999 25.1333 15.5999ZM32.9333 20.7999H12.1333C11.7885 20.7999 11.4579 20.9369 11.2141 21.1807C10.9703 21.4245 10.8333 21.7551 10.8333 22.0999C10.8333 22.4447 10.9703 22.7753 11.2141 23.0191C11.4579 23.2629 11.7885 23.3999 12.1333 23.3999H32.9333C33.2781 23.3999 33.6087 23.2629 33.8525 23.0191C34.0963 22.7753 34.2333 22.4447 34.2333 22.0999C34.2333 21.7551 34.0963 21.4245 33.8525 21.1807C33.6087 20.9369 33.2781 20.7999 32.9333 20.7999ZM13.4333 28.5999C12.7437 28.5999 12.0824 28.8738 11.5948 29.3614C11.1072 29.849 10.8333 30.5103 10.8333 31.1999V33.7999C10.8333 34.4895 11.1072 35.1508 11.5948 35.6384C12.0824 36.126 12.7437 36.3999 13.4333 36.3999H23.8333C24.5229 36.3999 25.1842 36.126 25.6718 35.6384C26.1594 35.1508 26.4333 34.4895 26.4333 33.7999V31.1999C26.4333 30.5103 26.1594 29.849 25.6718 29.3614C25.1842 28.8738 24.5229 28.5999 23.8333 28.5999H13.4333Z" fill="#C74500"/>
</g>
</svg>
