<svg width="49" height="48" viewBox="0 0 49 48" fill="none" xmlns="http://www.w3.org/2000/svg">
<g id="icon-park-solid:data">
<g id="Mask group">
<mask id="mask0_11_2576" style="mask-type:luminance" maskUnits="userSpaceOnUse" x="2" y="2" width="45" height="44">
<g id="Group">
<g id="Group_2">
<path id="Vector" d="M44.4333 11V38C44.4333 41.314 35.4793 44 24.4333 44C13.3874 44 4.43335 41.314 4.43335 38V11" stroke="white" stroke-width="4" stroke-linecap="round" stroke-linejoin="round"/>
<path id="Vector_2" d="M44.4333 29C44.4333 32.314 35.4793 35 24.4333 35C13.3874 35 4.43335 32.314 4.43335 29M44.4333 20C44.4333 23.314 35.4793 26 24.4333 26C13.3874 26 4.43335 23.314 4.43335 20" stroke="white" stroke-width="4" stroke-linecap="round" stroke-linejoin="round"/>
<path id="Vector_3" d="M24.4333 16C35.479 16 44.4333 13.3137 44.4333 10C44.4333 6.68629 35.479 4 24.4333 4C13.3877 4 4.43335 6.68629 4.43335 10C4.43335 13.3137 13.3877 16 24.4333 16Z" fill="white" stroke="white" stroke-width="4" stroke-linecap="round" stroke-linejoin="round"/>
</g>
</g>
</mask>
<g mask="url(#mask0_11_2576)">
<path id="Vector_4" d="M0.43335 0H48.4333V48H0.43335V0Z" fill="#C74500"/>
</g>
</g>
</g>
</svg>
