<svg width="166" height="84" viewBox="0 0 166 84" fill="none" xmlns="http://www.w3.org/2000/svg">
<path d="M63 21L49.8444 36.0743C46.8815 39.4693 46.8816 44.5309 49.8444 47.9259L63 63.0001L47.9258 49.8445C44.5308 46.8816 39.4692 46.8816 36.0742 49.8445L21 63.0001L34.1556 47.9259C37.1184 44.5309 37.1185 39.4693 34.1556 36.0743L21 21L36.0742 34.1557C39.4692 37.1185 44.5308 37.1185 47.9258 34.1557L63 21Z" fill="#2C2C2C"/>
<path d="M157.458 54.2622C155.806 54.2622 154.352 53.8987 153.096 53.1717C151.84 52.4227 150.849 51.3983 150.122 50.0985C149.417 48.7988 149.065 47.3008 149.065 45.6045C149.065 43.9082 149.417 42.4102 150.122 41.1104C150.827 39.8106 151.807 38.7973 153.063 38.0703C154.319 37.3213 155.762 36.9468 157.392 36.9468C159.022 36.9468 160.465 37.3213 161.721 38.0703C162.976 38.7973 163.957 39.8106 164.662 41.1104C165.367 42.4102 165.719 43.9082 165.719 45.6045C165.719 47.3008 165.367 48.7988 164.662 50.0985C163.957 51.3983 162.976 52.4227 161.721 53.1717C160.487 53.8987 159.066 54.2622 157.458 54.2622ZM157.458 51.3873C158.449 51.3873 159.33 51.145 160.101 50.6603C160.873 50.1536 161.467 49.4707 161.886 48.6115C162.326 47.7524 162.547 46.75 162.547 45.6045C162.547 44.4589 162.326 43.4566 161.886 42.5974C161.467 41.7383 160.862 41.0663 160.068 40.5817C159.275 40.075 158.383 39.8217 157.392 39.8217C156.378 39.8217 155.486 40.075 154.715 40.5817C153.944 41.0663 153.338 41.7383 152.898 42.5974C152.457 43.4566 152.237 44.4589 152.237 45.6045C152.237 46.75 152.457 47.7524 152.898 48.6115C153.338 49.4707 153.955 50.1536 154.748 50.6603C155.541 51.145 156.445 51.3873 157.458 51.3873Z" fill="#2C2C2C"/>
<path d="M142.25 53.8657V37.3434H145.389V53.8657H142.25ZM143.836 33.8407C143.329 33.8407 142.888 33.6534 142.514 33.2789C142.139 32.8824 141.952 32.4308 141.952 31.9241C141.952 31.3954 142.139 30.9548 142.514 30.6023C142.888 30.2278 143.329 30.0405 143.836 30.0405C144.364 30.0405 144.805 30.2278 145.157 30.6023C145.532 30.9548 145.719 31.3954 145.719 31.9241C145.719 32.4308 145.532 32.8824 145.157 33.2789C144.805 33.6534 144.364 33.8407 143.836 33.8407Z" fill="#2C2C2C"/>
<path d="M134.719 53.8661L134.587 50.793V30.7349H137.693V53.8661H134.719ZM129.167 54.2626C127.669 54.2626 126.359 53.8992 125.235 53.1722C124.134 52.4452 123.263 51.4318 122.625 50.1321C122.008 48.8323 121.699 47.3233 121.699 45.605C121.699 43.8646 122.008 42.3556 122.625 41.0778C123.263 39.7781 124.134 38.7647 125.235 38.0377C126.359 37.3107 127.669 36.9473 129.167 36.9473C130.555 36.9473 131.756 37.3107 132.769 38.0377C133.805 38.7647 134.598 39.7781 135.149 41.0778C135.699 42.3556 135.975 43.8646 135.975 45.605C135.975 47.3233 135.699 48.8323 135.149 50.1321C134.598 51.4318 133.805 52.4452 132.769 53.1722C131.756 53.8992 130.555 54.2626 129.167 54.2626ZM129.894 51.4208C130.82 51.4208 131.635 51.1785 132.34 50.6938C133.045 50.1871 133.595 49.5042 133.992 48.6451C134.388 47.7639 134.587 46.7505 134.587 45.605C134.587 44.4594 134.388 43.4571 133.992 42.5979C133.595 41.7167 133.045 41.0338 132.34 40.5491C131.635 40.0424 130.809 39.7891 129.861 39.7891C128.892 39.7891 128.033 40.0424 127.284 40.5491C126.535 41.0338 125.951 41.7167 125.533 42.5979C125.114 43.4571 124.905 44.4594 124.905 45.605C124.905 46.7505 125.114 47.7639 125.533 48.6451C125.973 49.5042 126.568 50.1871 127.317 50.6938C128.066 51.1785 128.925 51.4208 129.894 51.4208Z" fill="#2C2C2C"/>
<path d="M115.337 53.8661L115.138 50.826V37.3438H118.245V53.8661H115.337ZM103.705 45.8032V37.3438H106.844V45.8032H103.705ZM106.844 45.8032C106.844 47.2792 107.009 48.4137 107.34 49.2068C107.692 49.9998 108.177 50.5506 108.794 50.859C109.411 51.1674 110.105 51.3326 110.876 51.3547C112.219 51.3547 113.266 50.881 114.015 49.9338C114.764 48.9865 115.138 47.6537 115.138 45.9354H116.493C116.493 47.6757 116.229 49.1737 115.7 50.4294C115.193 51.6631 114.466 52.6104 113.519 53.2713C112.572 53.9322 111.415 54.2626 110.05 54.2626C108.772 54.2626 107.648 53.9982 106.679 53.4695C105.732 52.9408 104.994 52.1147 104.465 50.9912C103.958 49.8677 103.705 48.4137 103.705 46.6293V45.8032H106.844Z" fill="#2C2C2C"/>
<path d="M97.7971 54.2623C96.1449 54.2623 94.8671 53.8437 93.9639 53.0066C93.0607 52.1474 92.6091 50.9248 92.6091 49.3386V32.1885H95.7483V48.876C95.7483 49.6911 95.9466 50.319 96.3431 50.7596C96.7617 51.1781 97.3565 51.3874 98.1275 51.3874C98.3478 51.3874 98.5902 51.3434 98.8545 51.2552C99.1189 51.1671 99.4383 50.9909 99.8128 50.7265L101.002 53.1718C100.43 53.5463 99.8789 53.8217 99.3502 53.9979C98.8435 54.1742 98.3258 54.2623 97.7971 54.2623ZM89.8003 40.0531V37.3434H100.441V40.0531H89.8003Z" fill="#2C2C2C"/>
<path d="M81.9416 54.2622C80.774 54.2622 79.7276 54.0859 78.8023 53.7335C77.8991 53.381 77.1281 52.9073 76.4892 52.3125C75.8724 51.7177 75.4097 51.0458 75.1013 50.2968L77.811 49.1072C78.1635 49.7901 78.6922 50.3519 79.3971 50.7925C80.1021 51.2331 80.8841 51.4534 81.7433 51.4534C82.6906 51.4534 83.4726 51.2771 84.0895 50.9247C84.7063 50.5722 85.0147 50.0765 85.0147 49.4377C85.0147 48.8208 84.7834 48.3362 84.3208 47.9837C83.8581 47.6312 83.1862 47.3448 82.305 47.1245L80.752 46.728C79.2099 46.3094 78.0092 45.6816 77.1501 44.8444C76.313 44.0073 75.8944 43.06 75.8944 42.0026C75.8944 40.3944 76.4121 39.1498 77.4475 38.2686C78.4829 37.3874 80.014 36.9468 82.0407 36.9468C83.032 36.9468 83.9353 37.09 84.7504 37.3764C85.5875 37.6627 86.2924 38.0703 86.8652 38.599C87.46 39.1277 87.8786 39.7556 88.1209 40.4826L85.4773 41.6722C85.213 41.0113 84.7614 40.5266 84.1225 40.2182C83.4836 39.8878 82.7346 39.7225 81.8755 39.7225C80.9943 39.7225 80.3003 39.9208 79.7937 40.3173C79.287 40.6918 79.0336 41.2206 79.0336 41.9035C79.0336 42.278 79.2429 42.6415 79.6615 42.9939C80.1021 43.3244 80.7409 43.5998 81.5781 43.8201L83.3625 44.2496C84.4419 44.514 85.3341 44.9216 86.0391 45.4723C86.744 46.001 87.2728 46.6068 87.6252 47.2898C87.9777 47.9506 88.154 48.6446 88.154 49.3716C88.154 50.3629 87.8786 51.2331 87.3278 51.9821C86.7991 52.7091 86.0611 53.2708 85.1138 53.6674C84.1886 54.0639 83.1312 54.2622 81.9416 54.2622Z" fill="#2C2C2C"/>
</svg>
