<svg width="108" height="118" viewBox="0 0 108 118" fill="#C6FF29" xmlns="http://www.w3.org/2000/svg">
<path d="M78.7681 24.9459L63.1406 42.8525C59.621 46.8854 59.621 52.8981 63.1406 56.931L78.7681 74.8376L60.8615 59.2101C56.8286 55.6905 50.8159 55.6905 46.783 59.2101L28.8764 74.8376L44.5039 56.931C48.0235 52.8981 48.0235 46.8854 44.5039 42.8525L28.8764 24.9459L46.783 40.5734C50.8159 44.093 56.8286 44.093 60.8615 40.5734L78.7681 24.9459Z" fill="#2C2C2C"/>
<path d="M97.831 117.557C95.8683 117.557 94.1412 117.125 92.6495 116.261C91.1579 115.372 89.9803 114.155 89.1167 112.611C88.2793 111.067 87.8606 109.287 87.8606 107.272C87.8606 105.257 88.2793 103.478 89.1167 101.934C89.9541 100.39 91.1186 99.186 92.6103 98.3224C94.1019 97.4327 95.816 96.9878 97.7525 96.9878C99.689 96.9878 101.403 97.4327 102.895 98.3224C104.386 99.186 105.551 100.39 106.388 101.934C107.226 103.478 107.644 105.257 107.644 107.272C107.644 109.287 107.226 111.067 106.388 112.611C105.551 114.155 104.386 115.372 102.895 116.261C101.429 117.125 99.7414 117.557 97.831 117.557ZM97.831 114.142C99.0086 114.142 100.055 113.854 100.971 113.278C101.887 112.676 102.594 111.865 103.091 110.844C103.614 109.824 103.876 108.633 103.876 107.272C103.876 105.911 103.614 104.721 103.091 103.7C102.594 102.68 101.874 101.881 100.932 101.306C99.99 100.704 98.9301 100.403 97.7525 100.403C96.5487 100.403 95.4889 100.704 94.573 101.306C93.657 101.881 92.9374 102.68 92.414 103.7C91.8906 104.721 91.6289 105.911 91.6289 107.272C91.6289 108.633 91.8906 109.824 92.414 110.844C92.9374 111.865 93.6701 112.676 94.6122 113.278C95.5543 113.854 96.6272 114.142 97.831 114.142Z" fill="#2C2C2C"/>
<path d="M79.7651 117.086V97.4587H83.4942V117.086H79.7651ZM81.6493 93.2979C81.0474 93.2979 80.5241 93.0754 80.0792 92.6305C79.6343 92.1595 79.4119 91.623 79.4119 91.0211C79.4119 90.3931 79.6343 89.8697 80.0792 89.451C80.5241 89.0061 81.0474 88.7837 81.6493 88.7837C82.2774 88.7837 82.8008 89.0061 83.2195 89.451C83.6643 89.8697 83.8868 90.3931 83.8868 91.0211C83.8868 91.623 83.6643 92.1595 83.2195 92.6305C82.8008 93.0754 82.2774 93.2979 81.6493 93.2979Z" fill="#2C2C2C"/>
<path d="M70.8197 117.085L70.6627 113.435V89.6079H74.3525V117.085H70.8197ZM64.2251 117.556C62.4456 117.556 60.8885 117.125 59.5539 116.261C58.2454 115.398 57.2118 114.194 56.4529 112.65C55.7201 111.106 55.3538 109.313 55.3538 107.272C55.3538 105.205 55.7201 103.412 56.4529 101.894C57.2118 100.35 58.2454 99.1465 59.5539 98.283C60.8885 97.4194 62.4456 96.9876 64.2251 96.9876C65.8737 96.9876 67.2999 97.4194 68.5037 98.283C69.7337 99.1465 70.6758 100.35 71.33 101.894C71.9842 103.412 72.3113 105.205 72.3113 107.272C72.3113 109.313 71.9842 111.106 71.33 112.65C70.6758 114.194 69.7337 115.398 68.5037 116.261C67.2999 117.125 65.8737 117.556 64.2251 117.556ZM65.0887 114.181C66.1878 114.181 67.156 113.893 67.9934 113.317C68.8308 112.715 69.4851 111.904 69.9561 110.883C70.4271 109.837 70.6627 108.633 70.6627 107.272C70.6627 105.911 70.4271 104.721 69.9561 103.7C69.4851 102.653 68.8308 101.842 67.9934 101.266C67.156 100.664 66.1747 100.363 65.0494 100.363C63.898 100.363 62.8774 100.664 61.9876 101.266C61.0979 101.842 60.4044 102.653 59.9072 103.7C59.41 104.721 59.1614 105.911 59.1614 107.272C59.1614 108.633 59.41 109.837 59.9072 110.883C60.4306 111.904 61.1371 112.715 62.0269 113.317C62.9166 113.893 63.9372 114.181 65.0887 114.181Z" fill="#2C2C2C"/>
<path d="M47.7955 117.085L47.56 113.474V97.4585H51.2499V117.085H47.7955ZM33.9783 107.507V97.4585H37.7074V107.507H33.9783ZM37.7074 107.507C37.7074 109.261 37.9036 110.608 38.2962 111.551C38.7149 112.493 39.2906 113.147 40.0233 113.513C40.7561 113.88 41.5804 114.076 42.4963 114.102C44.0926 114.102 45.3357 113.539 46.2254 112.414C47.1151 111.289 47.56 109.706 47.56 107.664H49.1694C49.1694 109.732 48.8554 111.511 48.2273 113.003C47.6254 114.468 46.7619 115.594 45.6366 116.379C44.5113 117.164 43.1374 117.556 41.515 117.556C39.9972 117.556 38.6625 117.242 37.5111 116.614C36.3858 115.986 35.5092 115.005 34.8811 113.67C34.2792 112.336 33.9783 110.608 33.9783 108.489V107.507H37.7074Z" fill="#2C2C2C"/>
<path d="M26.9602 117.557C24.9975 117.557 23.4797 117.06 22.4068 116.065C21.3338 115.045 20.7974 113.592 20.7974 111.708V91.3354H24.5265V111.159C24.5265 112.127 24.762 112.873 25.233 113.396C25.7302 113.893 26.4368 114.142 27.3527 114.142C27.6144 114.142 27.9023 114.089 28.2163 113.985C28.5303 113.88 28.9098 113.671 29.3547 113.357L30.7678 116.261C30.0874 116.706 29.4332 117.033 28.8051 117.243C28.2032 117.452 27.5882 117.557 26.9602 117.557ZM17.4608 100.678V97.459H30.1005V100.678H17.4608Z" fill="#2C2C2C"/>
<path d="M8.1255 117.557C6.73854 117.557 5.4955 117.347 4.3964 116.929C3.32347 116.51 2.40755 115.947 1.64865 115.241C0.915917 114.534 0.366367 113.736 0 112.846L3.2188 111.433C3.6375 112.244 4.26556 112.912 5.10297 113.435C5.94038 113.958 6.86938 114.22 7.88997 114.22C9.01524 114.22 9.94425 114.011 10.677 113.592C11.4097 113.173 11.7761 112.585 11.7761 111.826C11.7761 111.093 11.5013 110.517 10.9518 110.098C10.4022 109.68 9.60405 109.34 8.55729 109.078L6.71237 108.607C4.88053 108.11 3.45432 107.364 2.43372 106.369C1.4393 105.375 0.942086 104.25 0.942086 102.994C0.942086 101.083 1.55706 99.6047 2.78701 98.5579C4.01695 97.5112 5.8357 96.9878 8.24326 96.9878C9.42086 96.9878 10.4938 97.1579 11.4621 97.4981C12.4565 97.8383 13.2939 98.3224 13.9743 98.9505C14.6808 99.5785 15.1781 100.324 15.4659 101.188L12.3256 102.601C12.0116 101.816 11.4751 101.24 10.7162 100.874C9.95733 100.481 9.06758 100.285 8.04699 100.285C7.00023 100.285 6.1759 100.521 5.57401 100.992C4.97212 101.437 4.67118 102.065 4.67118 102.876C4.67118 103.321 4.91978 103.752 5.417 104.171C5.94038 104.564 6.69928 104.891 7.69371 105.153L9.8134 105.663C11.0957 105.977 12.1555 106.461 12.9929 107.115C13.8304 107.743 14.4584 108.463 14.8771 109.274C15.2958 110.059 15.5052 110.884 15.5052 111.747C15.5052 112.925 15.1781 113.958 14.5238 114.848C13.8958 115.712 13.0191 116.379 11.8938 116.85C10.7947 117.321 9.53863 117.557 8.1255 117.557Z" fill="#2C2C2C"/>
</svg>
