<svg width="51" height="50" viewBox="0 0 51 50" fill="none" xmlns="http://www.w3.org/2000/svg">
<g id="nimbus:marketing" clip-path="url(#clip0_11_2613)">
<path id="Vector" d="M44.9646 6.56254C44.4274 6.21498 43.813 6.00472 43.1755 5.95023C42.5379 5.89574 41.8968 5.99869 41.3083 6.25004L22.0271 13.8438C21.5706 14.0296 21.0824 14.1251 20.5896 14.125H8.24585C7.20985 14.125 6.21628 14.5366 5.48371 15.2692C4.75115 16.0017 4.3396 16.9953 4.3396 18.0313V18.3438H0.43335V27.7188H4.3396V28.125C4.36408 29.1447 4.78641 30.1144 5.51634 30.8268C6.24627 31.5392 7.22589 31.9378 8.24585 31.9375L12.9333 41.875C13.2508 42.5442 13.7505 43.1103 14.3751 43.5083C14.9997 43.9063 15.724 44.1201 16.4646 44.125H18.4333C19.4639 44.1168 20.4495 43.7016 21.1753 42.9699C21.9011 42.2383 22.3084 41.2494 22.3083 40.2188V32.3125L41.3083 39.9063C41.7757 40.0923 42.2741 40.1877 42.7771 40.1875C43.5574 40.1749 44.3174 39.9361 44.9646 39.5C45.4786 39.153 45.9026 38.6886 46.2014 38.1451C46.5003 37.6017 46.6655 36.995 46.6833 36.375V9.78129C46.6805 9.1454 46.5224 8.51982 46.2229 7.95889C45.9234 7.39796 45.4914 6.91863 44.9646 6.56254ZM18.4021 18.0313V28.125H8.24585V18.0313H18.4021ZM18.4021 40.2188H16.4333L12.5896 31.9375H18.4021V40.2188ZM23.4646 28.5938C23.0936 28.4042 22.7067 28.2473 22.3083 28.125V17.8125C22.7029 17.7311 23.0897 17.6161 23.4646 17.4688L42.7771 9.78129V36.2813L23.4646 28.5938ZM46.7771 19.125V26.9375C47.8131 26.9375 48.8067 26.526 49.5392 25.7934C50.2718 25.0609 50.6833 24.0673 50.6833 23.0313C50.6833 21.9953 50.2718 21.0017 49.5392 20.2692C48.8067 19.5366 47.8131 19.125 46.7771 19.125Z" fill="#C74500"/>
</g>
<defs>
<clipPath id="clip0_11_2613">
<rect width="50" height="50" fill="white" transform="translate(0.43335)"/>
</clipPath>
</defs>
</svg>
