<svg width="41" height="41" viewBox="0 0 41 41" fill="none" xmlns="http://www.w3.org/2000/svg">
<path fill-rule="evenodd" clip-rule="evenodd" d="M11.9294 3.31116H31.1873C35.8795 3.31116 39.6833 7.11499 39.6833 11.8073V31.0651C39.6833 35.7573 35.8795 39.5612 31.1873 39.5612H11.9294C7.23718 39.5612 3.43335 35.7573 3.43335 31.0651V11.8073C3.43335 7.11499 7.23718 3.31116 11.9294 3.31116ZM31.7086 16.9314C31.7086 16.7045 31.7086 16.4798 31.6931 16.2551C32.7171 15.5145 33.6007 14.5974 34.3025 13.5464C33.3485 13.9699 32.3362 14.2474 31.2995 14.3695C32.391 13.716 33.2079 12.6882 33.5983 11.4775C32.5717 12.0864 31.4487 12.5157 30.2776 12.7469C28.2977 10.6419 24.9852 10.5403 22.8791 12.5202C22.2116 13.1477 21.7206 13.9394 21.4551 14.8161C21.1897 15.6929 21.159 16.624 21.3663 17.5163C19.2872 17.4124 17.2532 16.8723 15.3965 15.9311C13.5397 14.9899 11.9017 13.6686 10.5889 12.0531C9.20149 14.443 9.90978 17.4998 12.2074 19.0354C11.3753 19.0105 10.5614 18.786 9.83417 18.381V18.4472C9.83417 20.9366 11.5893 23.08 14.0288 23.5729C13.2592 23.7832 12.4515 23.814 11.668 23.663C12.0023 24.7019 12.6528 25.6104 13.5287 26.2615C14.4046 26.9126 15.4621 27.2737 16.5533 27.2944C14.7013 28.7491 12.414 29.539 10.0589 29.5372C9.64258 29.5362 9.2274 29.5114 8.81421 29.4617C11.2057 30.9962 13.9884 31.81 16.8298 31.8059V31.8102C26.4484 31.8102 31.7086 23.8411 31.7086 16.9314Z" fill="#C6FF29"/>
</svg>
